<svg width="40" height="40" viewBox="0 0 40 40" fill="none" xmlns="http://www.w3.org/2000/svg">
<path fill-rule="evenodd" clip-rule="evenodd" d="M0 8.07692C0 3.61616 3.87142 0 8.64706 0H18.9412C20.0782 0 21 0.860991 21 1.92308C21 2.98516 20.0782 3.84615 18.9412 3.84615H8.64706C6.14553 3.84615 4.11765 5.74033 4.11765 8.07692V31.9231C4.11765 34.2597 6.14553 36.1538 8.64706 36.1538H18.9412C20.0782 36.1538 21 37.0148 21 38.0769C21 39.139 20.0782 40 18.9412 40H8.64706C3.87142 40 0 36.3838 0 31.9231V8.07692Z" fill="#A0C9EF"/>
<path fill-rule="evenodd" clip-rule="evenodd" d="M26.3837 6.57672L39.4009 19.1077C40.1997 19.8766 40.1997 21.1234 39.4009 21.8923L26.3837 34.4233C25.5849 35.1922 24.2898 35.1922 23.491 34.4233C22.6922 33.6543 22.6922 32.4076 23.491 31.6386L33.0164 22.469H15.0455C13.9158 22.469 13 21.5875 13 20.5C13 19.4125 13.9158 18.531 15.0455 18.531H33.0164L23.491 9.36138C22.6922 8.59242 22.6922 7.34568 23.491 6.57672C24.2898 5.80776 25.5849 5.80776 26.3837 6.57672Z" fill="#A0C9EF"/>
</svg>
