<svg width="97" height="39" viewBox="0 0 97 39" fill="none" xmlns="http://www.w3.org/2000/svg">
<path d="M0.761364 31V27.0455L1.42045 26.9886C2.26894 26.9205 2.95455 26.5985 3.47727 26.0227C4 25.4394 4.39015 24.5114 4.64773 23.2386C4.91288 21.9583 5.08333 20.2386 5.15909 18.0795L5.54545 7.72727H21.3409V31H16.5568V11.6705H10.1136L9.75 19.7727C9.62879 22.3788 9.31818 24.5076 8.81818 26.1591C8.32576 27.8106 7.53788 29.0303 6.45455 29.8182C5.37879 30.6061 3.9053 31 2.03409 31H0.761364ZM33.2614 31.3409C31.4659 31.3409 29.9205 30.9773 28.625 30.25C27.3371 29.5152 26.3447 28.4773 25.6477 27.1364C24.9508 25.7879 24.6023 24.1932 24.6023 22.3523C24.6023 20.5568 24.9508 18.9811 25.6477 17.625C26.3447 16.2689 27.3258 15.2121 28.5909 14.4545C29.8636 13.697 31.3561 13.3182 33.0682 13.3182C34.2197 13.3182 35.2917 13.5038 36.2841 13.875C37.2841 14.2386 38.1553 14.7879 38.8977 15.5227C39.6477 16.2576 40.2311 17.1818 40.6477 18.2955C41.0644 19.4015 41.2727 20.697 41.2727 22.1818V23.5114H26.5341V20.5114H36.7159C36.7159 19.8144 36.5644 19.197 36.2614 18.6591C35.9583 18.1212 35.5379 17.7008 35 17.3977C34.4697 17.0871 33.8523 16.9318 33.1477 16.9318C32.4129 16.9318 31.7614 17.1023 31.1932 17.4432C30.6326 17.7765 30.1932 18.2273 29.875 18.7955C29.5568 19.3561 29.3939 19.9811 29.3864 20.6705V23.5227C29.3864 24.3864 29.5455 25.1326 29.8636 25.7614C30.1894 26.3902 30.6477 26.875 31.2386 27.2159C31.8295 27.5568 32.5303 27.7273 33.3409 27.7273C33.8788 27.7273 34.3712 27.6515 34.8182 27.5C35.2652 27.3485 35.6477 27.1212 35.9659 26.8182C36.2841 26.5152 36.5265 26.1439 36.6932 25.7045L41.1705 26C40.9432 27.0758 40.4773 28.0152 39.7727 28.8182C39.0758 29.6136 38.1742 30.2348 37.0682 30.6818C35.9697 31.1212 34.7008 31.3409 33.2614 31.3409ZM56.5795 20.3409V24.1477H47.4659V20.3409H56.5795ZM49.0568 13.5455V31H44.4318V13.5455H49.0568ZM59.6136 13.5455V31H55.0227V13.5455H59.6136ZM61.6165 17.3523V13.5455H77.4347V17.3523H71.8097V31H67.196V17.3523H61.6165ZM84.7216 31.3295C83.608 31.3295 82.6155 31.1364 81.7443 30.75C80.8731 30.3561 80.1837 29.7765 79.6761 29.0114C79.1761 28.2386 78.9261 27.2765 78.9261 26.125C78.9261 25.1553 79.1042 24.3409 79.4602 23.6818C79.8163 23.0227 80.3011 22.4924 80.9148 22.0909C81.5284 21.6894 82.2254 21.3864 83.0057 21.1818C83.7936 20.9773 84.6193 20.8333 85.483 20.75C86.4981 20.6439 87.3163 20.5455 87.9375 20.4545C88.5587 20.3561 89.0095 20.2121 89.2898 20.0227C89.5701 19.8333 89.7102 19.553 89.7102 19.1818V19.1136C89.7102 18.3939 89.483 17.8371 89.0284 17.4432C88.5814 17.0492 87.9451 16.8523 87.1193 16.8523C86.2481 16.8523 85.5549 17.0455 85.0398 17.4318C84.5246 17.8106 84.1837 18.2879 84.017 18.8636L79.5398 18.5C79.767 17.4394 80.214 16.5227 80.8807 15.75C81.5473 14.9697 82.4072 14.3712 83.4602 13.9545C84.5208 13.5303 85.7481 13.3182 87.142 13.3182C88.1117 13.3182 89.0398 13.4318 89.9261 13.6591C90.8201 13.8864 91.6117 14.2386 92.3011 14.7159C92.9981 15.1932 93.5473 15.8068 93.9489 16.5568C94.3504 17.2992 94.5511 18.1894 94.5511 19.2273V31H89.9602V28.5795H89.8239C89.5436 29.125 89.1686 29.6061 88.6989 30.0227C88.2292 30.4318 87.6648 30.7538 87.0057 30.9886C86.3466 31.2159 85.5852 31.3295 84.7216 31.3295ZM86.108 27.9886C86.8201 27.9886 87.4489 27.8485 87.9943 27.5682C88.5398 27.2803 88.9678 26.8939 89.2784 26.4091C89.589 25.9242 89.7443 25.375 89.7443 24.7614V22.9091C89.5928 23.0076 89.3845 23.0985 89.1193 23.1818C88.8617 23.2576 88.5701 23.3295 88.2443 23.3977C87.9186 23.4583 87.5928 23.5152 87.267 23.5682C86.9413 23.6136 86.6458 23.6553 86.3807 23.6932C85.8125 23.7765 85.3163 23.9091 84.892 24.0909C84.4678 24.2727 84.1383 24.5189 83.9034 24.8295C83.6686 25.1326 83.5511 25.5114 83.5511 25.9659C83.5511 26.625 83.7898 27.1288 84.267 27.4773C84.7519 27.8182 85.3655 27.9886 86.108 27.9886Z" fill="#727AC3"/>
</svg>
