<svg width="32" height="37" viewBox="0 0 32 37" fill="none" xmlns="http://www.w3.org/2000/svg">
<path d="M0 29.1067L1.043 26.5737C2.63445 22.7088 3.4533 18.5695 3.4533 14.3897V12.3333C3.45331 5.52183 8.97514 0 15.7867 0C22.5982 0 28.12 5.52183 28.12 12.3333V14.3896C28.12 18.5694 28.9389 22.7087 30.5303 26.5737L31.5734 29.1067H0Z" fill="#A0C9EF"/>
<path d="M9.37329 30.8333C9.37329 30.7507 9.37492 30.6685 9.37813 30.5867H21.7018C21.705 30.6685 21.7066 30.7507 21.7066 30.8333C21.7066 34.2391 18.9457 37 15.54 37C12.1342 37 9.37329 34.2391 9.37329 30.8333Z" fill="#A0C9EF"/>
</svg>
