<svg width="40" height="39" viewBox="0 0 40 39" fill="none" xmlns="http://www.w3.org/2000/svg">
<path fill-rule="evenodd" clip-rule="evenodd" d="M24.0491 31.1175C32.642 31.1175 39.6078 24.1516 39.6078 15.5588C39.6078 6.9659 32.642 0 24.0491 0C15.4562 0 8.49032 6.9659 8.49032 15.5588C8.49032 18.6501 9.39185 21.5308 10.9463 23.9524C10.8779 24.0077 10.8117 24.0671 10.7481 24.1307L0.732386 34.1465C-0.243925 35.1228 -0.243925 36.7057 0.732386 37.682C1.7087 38.6584 3.29161 38.6584 4.26792 37.682L14.2806 27.6694C16.951 29.8261 20.3492 31.1175 24.0491 31.1175ZM24.0491 27.1528C17.6459 27.1528 12.455 21.962 12.455 15.5588C12.455 9.15555 17.6459 3.96473 24.0491 3.96473C30.4523 3.96473 35.6431 9.15555 35.6431 15.5588C35.6431 21.962 30.4523 27.1528 24.0491 27.1528Z" fill="#A0C9EF"/>
</svg>
