<svg width="61" height="61" viewBox="0 0 61 61" fill="none" xmlns="http://www.w3.org/2000/svg">
<mask id="path-1-inside-1_166_5" fill="white">
<path d="M39.287 12.2668C39.8444 11.1624 39.4074 9.79667 38.257 9.34424C34.3905 7.82363 30.1662 7.41196 26.057 8.17858C21.2123 9.08242 16.7979 11.5737 13.4973 15.2667C10.1967 18.9597 8.19413 23.6483 7.79965 28.6065C7.40517 33.5648 8.64079 38.516 11.3152 42.6936C13.9896 46.8711 17.9535 50.0419 22.5933 51.715C27.233 53.388 32.2896 53.47 36.9801 51.9481C41.6706 50.4263 45.7333 47.3856 48.5391 43.2969C50.9206 39.8265 52.2839 35.7655 52.497 31.5785C52.5601 30.3405 51.5 29.3796 50.2695 29.4393C49.0474 29.4987 48.1215 30.5439 48.0304 31.7716C47.7925 34.9773 46.7129 38.0761 44.8846 40.7404C42.6357 44.0176 39.3794 46.4547 35.6199 47.6745C31.8604 48.8943 27.8074 48.8286 24.0887 47.4876C20.3699 46.1467 17.1927 43.6052 15.0492 40.2569C12.9056 36.9085 11.9152 32.9401 12.2314 28.966C12.5476 24.9919 14.1527 21.2339 16.7981 18.2739C19.4436 15.314 22.9818 13.3172 26.8649 12.5927C30.0119 12.0056 33.2431 12.2807 36.2279 13.3696C37.389 13.7932 38.7296 13.3713 39.287 12.2668Z"/>
</mask>
<path d="M39.287 12.2668C39.8444 11.1624 39.4074 9.79667 38.257 9.34424C34.3905 7.82363 30.1662 7.41196 26.057 8.17858C21.2123 9.08242 16.7979 11.5737 13.4973 15.2667C10.1967 18.9597 8.19413 23.6483 7.79965 28.6065C7.40517 33.5648 8.64079 38.516 11.3152 42.6936C13.9896 46.8711 17.9535 50.0419 22.5933 51.715C27.233 53.388 32.2896 53.47 36.9801 51.9481C41.6706 50.4263 45.7333 47.3856 48.5391 43.2969C50.9206 39.8265 52.2839 35.7655 52.497 31.5785C52.5601 30.3405 51.5 29.3796 50.2695 29.4393C49.0474 29.4987 48.1215 30.5439 48.0304 31.7716C47.7925 34.9773 46.7129 38.0761 44.8846 40.7404C42.6357 44.0176 39.3794 46.4547 35.6199 47.6745C31.8604 48.8943 27.8074 48.8286 24.0887 47.4876C20.3699 46.1467 17.1927 43.6052 15.0492 40.2569C12.9056 36.9085 11.9152 32.9401 12.2314 28.966C12.5476 24.9919 14.1527 21.2339 16.7981 18.2739C19.4436 15.314 22.9818 13.3172 26.8649 12.5927C30.0119 12.0056 33.2431 12.2807 36.2279 13.3696C37.389 13.7932 38.7296 13.3713 39.287 12.2668Z" stroke="#A0C9EF" stroke-width="10" mask="url(#path-1-inside-1_166_5)"/>
<path d="M57.3148 17.3703C57.2194 17.4442 57.1219 17.5134 57.0224 17.5781L57.0313 17.5899L36.6218 33.4016L28.4475 33.3126L30.478 25.3177L50.8876 9.50601L50.8965 9.51779C50.9841 9.43751 51.0756 9.3603 51.171 9.28641C53.2062 7.70969 56.2314 8.24116 57.928 10.4735C59.6245 12.7058 59.35 15.7936 57.3148 17.3703Z" fill="#A0C9EF"/>
</svg>
