<svg width="42" height="62" viewBox="0 0 42 62" fill="none" xmlns="http://www.w3.org/2000/svg">
<path d="M37 4.86961H27.388C27.3189 2.16845 25.1075 0 22.3897 0H19.6071C16.8892 0 14.6779 2.16845 14.6087 4.86961H5C2.23858 4.86961 0 7.10818 0 9.86961V11.5653H42V9.86961C42 7.10818 39.7614 4.86961 37 4.86961Z" fill="#6E86DB"/>
<path fill-rule="evenodd" clip-rule="evenodd" d="M0 17.0432H42V56.478C42 59.2395 39.7614 61.478 37 61.478H5C2.23858 61.478 0 59.2394 0 56.478V17.0432ZM12.6094 51.5776C12.6094 52.6822 13.5048 53.5776 14.6094 53.5776C15.714 53.5776 16.6094 52.6822 16.6094 51.5776V26.3349C16.6094 25.2303 15.714 24.3349 14.6094 24.3349C13.5048 24.3349 12.6094 25.2303 12.6094 26.3349V51.5776ZM27.0432 51.5777C27.0432 52.6823 27.9386 53.5777 29.0432 53.5777C30.1477 53.5777 31.0432 52.6823 31.0432 51.5777V26.335C31.0432 25.2304 30.1477 24.335 29.0432 24.335C27.9386 24.335 27.0432 25.2304 27.0432 26.335V51.5777Z" fill="#6E86DB"/>
</svg>
