<svg width="150" height="150" viewBox="0 0 150 150" fill="none" xmlns="http://www.w3.org/2000/svg">
<circle cx="75" cy="75" r="75" fill="#6E86DB"/>
<path fill-rule="evenodd" clip-rule="evenodd" d="M63 47C60.7909 47 59 48.7909 59 51V54H48C43.0294 54 39 58.0294 39 63V90C39 94.9706 43.0294 99 48 99H101C105.971 99 110 94.9706 110 90V63C110 58.0294 105.971 54 101 54H90V51C90 48.7909 88.2091 47 86 47H63ZM87 75C87 81.6274 81.6274 87 75 87C68.3726 87 63 81.6274 63 75C63 68.3726 68.3726 63 75 63C81.6274 63 87 68.3726 87 75Z" fill="white"/>
</svg>
