<svg width="20" height="26" viewBox="0 0 20 26" fill="none" xmlns="http://www.w3.org/2000/svg">
<path d="M12.1512 20.2537L13.1024 18.0129L15.933 19.2144L14.9818 21.4552C13.4058 25.168 9.11846 26.9002 5.40571 25.3242C1.69296 23.7482 -0.039239 19.4609 1.53673 15.7481L2.48791 13.5073L5.31845 14.7088L4.36726 16.9496C3.45486 19.0991 4.45772 21.5812 6.6072 22.4936C8.75669 23.4061 11.2388 22.4032 12.1512 20.2537Z" fill="#A0C9EF"/>
<path d="M18.4207 13.3537L15.5901 12.1522L16.5413 9.91136C17.4537 7.76188 16.4509 5.27973 14.3014 4.36733C12.1519 3.45492 9.66973 4.45778 8.75733 6.60726L7.80615 8.84811L4.97561 7.64662L5.9268 5.40577C7.50276 1.69302 11.7901 -0.0391772 15.5029 1.53679C19.2156 3.11276 20.9478 7.40011 19.3718 11.1129L18.4207 13.3537Z" fill="#A0C9EF"/>
<path d="M12.4558 9.19434C11.6942 8.87107 10.8148 9.22639 10.4915 9.98798L7.71114 16.5381C7.38787 17.2997 7.74319 18.1792 8.50478 18.5025C9.26637 18.8257 10.1458 18.4704 10.4691 17.7088L13.2495 11.1587C13.5728 10.3971 13.2174 9.51762 12.4558 9.19434Z" fill="#A0C9EF"/>
</svg>
