<svg width="858" height="201" viewBox="0 0 858 201" fill="none" xmlns="http://www.w3.org/2000/svg">
<path d="M0 201V61.0366H11.9046C11.9046 61.0366 28.5921 60.2185 45.2083 55.7749C55.4846 53.0267 70.2897 48.459 79.2999 45.2513C95.7762 39.3856 115.281 28.4339 125.537 22.3682C127.829 20.8629 130.206 19.421 132.66 18.0466C152.846 6.74437 178.329 0 206.031 0C206.82 0 207.607 0.00546784 208.392 0.016353C208.902 0.00546768 209.413 0 209.926 0C212.361 0 214.77 0.123502 217.148 0.365098C239.936 1.86935 260.853 7.95161 278.056 17.3039C278.507 17.5492 278.956 17.7968 279.402 18.0466C281.732 19.351 283.991 20.7163 286.175 22.1388C286.271 22.2015 286.367 22.2643 286.463 22.3273L286.526 22.3683C296.782 28.434 316.287 39.3856 332.763 45.2513C341.773 48.459 356.578 53.0267 366.854 55.7749C383.471 60.2185 400.158 61.0366 400.158 61.0366H858V201H0Z" fill="white"/>
<path fill-rule="evenodd" clip-rule="evenodd" d="M676.721 201C684.685 181.992 689 161.649 689 140.5C689 112.138 681.24 85.223 667.324 61.0366H400.158C400.158 61.0366 383.471 60.2184 366.854 55.7749C356.578 53.0267 341.773 48.459 332.763 45.2513C316.287 39.3856 296.782 28.434 286.526 22.3683L286.463 22.3273C286.367 22.2643 286.271 22.2015 286.175 22.1387C283.991 20.7162 281.732 19.351 279.402 18.0466C278.956 17.7968 278.507 17.5492 278.056 17.3039C276.07 16.2241 274.034 15.188 271.952 14.1974C234.649 47.8158 212 92.0453 212 140.5C212 161.649 216.315 181.992 224.279 201H676.721Z" fill="#EEF4FF"/>
</svg>
