<svg width="54" height="32" viewBox="0 0 54 32" fill="none" xmlns="http://www.w3.org/2000/svg">
<path fill-rule="evenodd" clip-rule="evenodd" d="M36.4757 7.68934C33.2434 5.83126 29.4958 4.76863 25.5 4.76863C16.2726 4.76863 8.36878 10.4353 5.0786 18.4784H0C3.50873 7.75004 13.5993 0 25.5 0C31.4038 0 36.8621 1.9073 41.2923 5.13935L51 0L53.3394 4.41894L45.2678 8.69218C47.8232 11.4767 49.7979 14.8028 51 18.4784H45.9214C44.764 15.6489 43.0355 13.1135 40.8793 11.0155L33.1387 15.1134C33.5928 16.1428 33.8449 17.2811 33.8449 18.4784C33.8449 23.0873 30.1087 26.8235 25.4998 26.8235C22.5165 26.8235 19.8989 25.2581 18.4235 22.9039L2.33944 31.4189L0 27L17.1739 17.9079C17.4671 13.5651 21.0827 10.1333 25.4998 10.1333C27.0352 10.1333 28.4737 10.548 29.7096 11.2714L36.4757 7.68934Z" fill="#6E86DB"/>
</svg>
