<svg width="40" height="9" viewBox="0 0 40 9" fill="none" xmlns="http://www.w3.org/2000/svg">
<path fill-rule="evenodd" clip-rule="evenodd" d="M8.96 4.48C8.96 6.95424 6.95424 8.96 4.48 8.96C2.00576 8.96 0 6.95424 0 4.48C0 2.00576 2.00576 0 4.48 0C6.95424 0 8.96 2.00576 8.96 4.48ZM24.64 4.48C24.64 6.95424 22.6342 8.96 20.16 8.96C17.6857 8.96 15.68 6.95424 15.68 4.48C15.68 2.00576 17.6857 0 20.16 0C22.6342 0 24.64 2.00576 24.64 4.48ZM35.5199 8.96C37.9942 8.96 39.9999 6.95424 39.9999 4.48C39.9999 2.00576 37.9942 0 35.5199 0C33.0457 0 31.0399 2.00576 31.0399 4.48C31.0399 6.95424 33.0457 8.96 35.5199 8.96Z" fill="#6E86DB"/>
</svg>
