<svg width="34" height="32" viewBox="0 0 34 32" fill="none" xmlns="http://www.w3.org/2000/svg">
<path d="M2.00023 9.4407C2.00008 9.46045 2 9.48022 2 9.5C2 9.58931 2.00156 9.67825 2.00466 9.7668C2.03423 11.0974 2.20455 12.4216 2.513 13.7171C2.79538 14.9031 3.1885 16.0599 3.68718 17.1724L3.72953 17.2668C4.81738 19.6936 6.33893 21.9014 8.21942 23.7819L9.66378 25.2263C10.5531 26.1156 11.5132 26.9313 12.5345 27.6654L14.6655 29.197C16.0604 30.1996 17.9396 30.1996 19.3345 29.197L21.4655 27.6654C22.4868 26.9313 23.4469 26.1156 24.3362 25.2263L25.7806 23.7819C27.6611 21.9014 29.1826 19.6936 30.2705 17.2668L30.3128 17.1724C30.8115 16.0599 31.2046 14.9031 31.487 13.7171C31.7955 12.4216 31.9658 11.0974 31.9953 9.7668C31.9984 9.67825 32 9.58931 32 9.5C32 9.48022 31.9999 9.46045 31.9998 9.4407C31.9999 9.40969 32 9.37867 32 9.34765V8.76949C32 8.75865 31.9914 8.74978 31.9805 8.74951V8.74951C31.9704 8.74926 31.9621 8.74147 31.9611 8.73144C31.5762 4.95035 28.3827 2 24.5 2C20.7687 2 17.6737 3.24804 17.0966 6.79355C17.0889 6.84064 17.0477 6.87619 17 6.875V6.875V6.875C16.9523 6.87619 16.9111 6.84064 16.9034 6.79355C16.3263 3.24804 13.2313 2 9.5 2C5.61734 2 2.42377 4.95035 2.0389 8.73144C2.03788 8.74147 2.02956 8.74926 2.01948 8.74951V8.74951C2.00865 8.74978 2 8.75865 2 8.76949V9.34765C2 9.37867 2.00008 9.40969 2.00023 9.4407Z" stroke="#6E86DB" stroke-width="3" stroke-linecap="round"/>
</svg>
