<svg width="35" height="30" viewBox="0 0 35 30" fill="none" xmlns="http://www.w3.org/2000/svg">
<path fill-rule="evenodd" clip-rule="evenodd" d="M4.33899 23.1413H7.95482V27.8268C7.95482 29.5692 9.90505 30.6007 11.3453 29.6201L20.861 23.1413H30.3729C32.7693 23.1413 34.7119 21.1987 34.7119 18.8023V4.33899C34.7119 1.94263 32.7693 0 30.3729 0H4.33899C1.94263 0 0 1.94263 0 4.33899V18.8023C0 21.1987 1.94263 23.1413 4.33899 23.1413ZM30.3729 2.41055H4.33899C3.27394 2.41055 2.41055 3.27394 2.41055 4.33899V18.8023C2.41055 19.8673 3.27394 20.7307 4.33899 20.7307H10.3654V27.3711L15.1616 24.1055H15.1865L20.1494 20.7307H30.3729C31.438 20.7307 32.3014 19.8673 32.3014 18.8023V4.33899C32.3014 3.27394 31.438 2.41055 30.3729 2.41055Z" fill="#6E86DB"/>
</svg>
