<svg width="600" height="711" viewBox="0 0 600 711" fill="none" xmlns="http://www.w3.org/2000/svg">
<g filter="url(#filter0_d_125_145)">
<rect x="26" y="14" width="560" height="671" rx="25" fill="white"/>
</g>
<path d="M469 269L476.029 242.64C482.539 218.228 472.249 192.437 450.722 179.211V179.211C426.354 164.24 395.383 165.348 372.146 182.021L345 201.5L278.788 159.317C244.951 137.759 200.718 142.377 172.063 170.459L163.423 178.926C136.956 204.863 125.37 242.409 132.62 278.75L135.136 291.368C150.362 367.698 196.492 434.325 262.579 475.44V475.44C280.804 486.779 300.222 496.078 320.482 503.169L330 506.5" stroke="#A7CAFF" stroke-width="34" stroke-linecap="round"/>
<path d="M203.148 322.227V303.159H206.307C207.383 302.386 208.367 301.295 209.261 299.886C210.155 298.462 210.92 296.5 211.557 294C212.193 291.485 212.648 288.197 212.92 284.136L214.239 264.455H245.034V303.159H250.125V322.182H240.67V311H212.602V322.227H203.148ZM217.67 303.159H235.58V272.568H223.102L222.375 284.136C222.178 287.212 221.852 289.939 221.398 292.318C220.958 294.697 220.42 296.78 219.784 298.568C219.163 300.341 218.458 301.871 217.67 303.159ZM271.699 311.682C268.169 311.682 265.116 310.932 262.54 309.432C259.979 307.917 258.002 305.811 256.608 303.114C255.214 300.402 254.517 297.258 254.517 293.682C254.517 290.076 255.214 286.924 256.608 284.227C258.002 281.515 259.979 279.409 262.54 277.909C265.116 276.394 268.169 275.636 271.699 275.636C275.229 275.636 278.275 276.394 280.835 277.909C283.411 279.409 285.396 281.515 286.79 284.227C288.184 286.924 288.881 290.076 288.881 293.682C288.881 297.258 288.184 300.402 286.79 303.114C285.396 305.811 283.411 307.917 280.835 309.432C278.275 310.932 275.229 311.682 271.699 311.682ZM271.744 304.182C273.35 304.182 274.691 303.727 275.767 302.818C276.843 301.894 277.653 300.636 278.199 299.045C278.759 297.455 279.04 295.644 279.04 293.614C279.04 291.583 278.759 289.773 278.199 288.182C277.653 286.591 276.843 285.333 275.767 284.409C274.691 283.485 273.35 283.023 271.744 283.023C270.123 283.023 268.759 283.485 267.653 284.409C266.563 285.333 265.737 286.591 265.176 288.182C264.631 289.773 264.358 291.583 264.358 293.614C264.358 295.644 264.631 297.455 265.176 299.045C265.737 300.636 266.563 301.894 267.653 302.818C268.759 303.727 270.123 304.182 271.744 304.182ZM324.199 263.273L327.153 269.591C326.169 270.409 325.078 271.015 323.881 271.409C322.684 271.788 321.252 272.038 319.585 272.159C317.934 272.28 315.919 272.364 313.54 272.409C310.843 272.439 308.646 272.871 306.949 273.705C305.252 274.538 303.964 275.848 303.085 277.636C302.206 279.409 301.631 281.727 301.358 284.591H301.699C302.744 282.455 304.214 280.803 306.108 279.636C308.017 278.47 310.373 277.886 313.176 277.886C316.146 277.886 318.744 278.538 320.972 279.841C323.214 281.144 324.956 283.015 326.199 285.455C327.441 287.894 328.062 290.818 328.062 294.227C328.062 297.773 327.366 300.856 325.972 303.477C324.593 306.083 322.631 308.106 320.085 309.545C317.54 310.97 314.509 311.682 310.994 311.682C307.464 311.682 304.419 310.939 301.858 309.455C299.313 307.97 297.343 305.78 295.949 302.886C294.57 299.992 293.881 296.432 293.881 292.205V289.341C293.881 280.932 295.517 274.697 298.79 270.636C302.063 266.576 306.873 264.515 313.222 264.455C314.949 264.424 316.509 264.417 317.903 264.432C319.297 264.447 320.517 264.379 321.562 264.227C322.623 264.076 323.502 263.758 324.199 263.273ZM311.04 304.182C312.525 304.182 313.797 303.795 314.858 303.023C315.934 302.25 316.759 301.144 317.335 299.705C317.926 298.265 318.222 296.545 318.222 294.545C318.222 292.561 317.926 290.879 317.335 289.5C316.759 288.106 315.934 287.045 314.858 286.318C313.782 285.591 312.494 285.227 310.994 285.227C309.873 285.227 308.866 285.432 307.972 285.841C307.078 286.25 306.313 286.856 305.676 287.659C305.055 288.447 304.57 289.424 304.222 290.591C303.888 291.742 303.722 293.061 303.722 294.545C303.722 297.53 304.366 299.886 305.653 301.614C306.956 303.326 308.752 304.182 311.04 304.182ZM334.489 324.091V276.091H344.034V281.955H344.466C344.89 281.015 345.504 280.061 346.307 279.091C347.125 278.106 348.186 277.288 349.489 276.636C350.807 275.97 352.443 275.636 354.398 275.636C356.943 275.636 359.292 276.303 361.443 277.636C363.595 278.955 365.314 280.947 366.602 283.614C367.89 286.265 368.534 289.591 368.534 293.591C368.534 297.485 367.905 300.773 366.648 303.455C365.405 306.121 363.708 308.144 361.557 309.523C359.42 310.886 357.027 311.568 354.375 311.568C352.496 311.568 350.898 311.258 349.58 310.636C348.277 310.015 347.208 309.235 346.375 308.295C345.542 307.341 344.905 306.379 344.466 305.409H344.17V324.091H334.489ZM343.966 293.545C343.966 295.621 344.254 297.432 344.83 298.977C345.405 300.523 346.239 301.727 347.33 302.591C348.42 303.439 349.746 303.864 351.307 303.864C352.883 303.864 354.216 303.432 355.307 302.568C356.398 301.689 357.223 300.477 357.784 298.932C358.36 297.371 358.648 295.576 358.648 293.545C358.648 291.53 358.367 289.758 357.807 288.227C357.246 286.697 356.42 285.5 355.33 284.636C354.239 283.773 352.898 283.341 351.307 283.341C349.731 283.341 348.398 283.758 347.307 284.591C346.231 285.424 345.405 286.606 344.83 288.136C344.254 289.667 343.966 291.47 343.966 293.545ZM390.761 311.682C387.231 311.682 384.178 310.932 381.602 309.432C379.042 307.917 377.064 305.811 375.67 303.114C374.277 300.402 373.58 297.258 373.58 293.682C373.58 290.076 374.277 286.924 375.67 284.227C377.064 281.515 379.042 279.409 381.602 277.909C384.178 276.394 387.231 275.636 390.761 275.636C394.292 275.636 397.337 276.394 399.898 277.909C402.473 279.409 404.458 281.515 405.852 284.227C407.246 286.924 407.943 290.076 407.943 293.682C407.943 297.258 407.246 300.402 405.852 303.114C404.458 305.811 402.473 307.917 399.898 309.432C397.337 310.932 394.292 311.682 390.761 311.682ZM390.807 304.182C392.413 304.182 393.754 303.727 394.83 302.818C395.905 301.894 396.716 300.636 397.261 299.045C397.822 297.455 398.102 295.644 398.102 293.614C398.102 291.583 397.822 289.773 397.261 288.182C396.716 286.591 395.905 285.333 394.83 284.409C393.754 283.485 392.413 283.023 390.807 283.023C389.186 283.023 387.822 283.485 386.716 284.409C385.625 285.333 384.799 286.591 384.239 288.182C383.693 289.773 383.42 291.583 383.42 293.614C383.42 295.644 383.693 297.455 384.239 299.045C384.799 300.636 385.625 301.894 386.716 302.818C387.822 303.727 389.186 304.182 390.807 304.182ZM103.02 388V353.091H133.543V388H124.293V360.705H112.156V388H103.02ZM157.043 388.682C153.512 388.682 150.459 387.932 147.884 386.432C145.323 384.917 143.346 382.811 141.952 380.114C140.558 377.402 139.861 374.258 139.861 370.682C139.861 367.076 140.558 363.924 141.952 361.227C143.346 358.515 145.323 356.409 147.884 354.909C150.459 353.394 153.512 352.636 157.043 352.636C160.573 352.636 163.618 353.394 166.179 354.909C168.755 356.409 170.74 358.515 172.134 361.227C173.527 363.924 174.224 367.076 174.224 370.682C174.224 374.258 173.527 377.402 172.134 380.114C170.74 382.811 168.755 384.917 166.179 386.432C163.618 387.932 160.573 388.682 157.043 388.682ZM157.088 381.182C158.694 381.182 160.035 380.727 161.111 379.818C162.187 378.894 162.997 377.636 163.543 376.045C164.103 374.455 164.384 372.644 164.384 370.614C164.384 368.583 164.103 366.773 163.543 365.182C162.997 363.591 162.187 362.333 161.111 361.409C160.035 360.485 158.694 360.023 157.088 360.023C155.467 360.023 154.103 360.485 152.997 361.409C151.906 362.333 151.08 363.591 150.52 365.182C149.974 366.773 149.702 368.583 149.702 370.614C149.702 372.644 149.974 374.455 150.52 376.045C151.08 377.636 151.906 378.894 152.997 379.818C154.103 380.727 155.467 381.182 157.088 381.182ZM176.997 388L189.202 369.841L177.065 353.091H188.111L197.179 366.75H198.679V353.091H208.361V366.75H209.815L218.884 353.091H229.929L217.815 369.841L229.997 388H218.702L209.724 374.364H208.361V388H198.679V374.364H197.315L188.293 388H176.997ZM245.224 388.659C242.997 388.659 241.012 388.273 239.27 387.5C237.527 386.712 236.149 385.553 235.134 384.023C234.134 382.477 233.634 380.553 233.634 378.25C233.634 376.311 233.99 374.682 234.702 373.364C235.414 372.045 236.384 370.985 237.611 370.182C238.838 369.379 240.232 368.773 241.793 368.364C243.368 367.955 245.02 367.667 246.747 367.5C248.777 367.288 250.414 367.091 251.656 366.909C252.899 366.712 253.8 366.424 254.361 366.045C254.921 365.667 255.202 365.106 255.202 364.364V364.227C255.202 362.788 254.747 361.674 253.838 360.886C252.944 360.098 251.671 359.705 250.02 359.705C248.277 359.705 246.891 360.091 245.861 360.864C244.83 361.621 244.149 362.576 243.815 363.727L234.861 363C235.315 360.879 236.209 359.045 237.543 357.5C238.876 355.939 240.596 354.742 242.702 353.909C244.823 353.061 247.277 352.636 250.065 352.636C252.005 352.636 253.861 352.864 255.634 353.318C257.421 353.773 259.005 354.477 260.384 355.432C261.777 356.386 262.876 357.614 263.679 359.114C264.482 360.598 264.884 362.379 264.884 364.455V388H255.702V383.159H255.429C254.868 384.25 254.118 385.212 253.179 386.045C252.24 386.864 251.111 387.508 249.793 387.977C248.474 388.432 246.952 388.659 245.224 388.659ZM247.997 381.977C249.421 381.977 250.679 381.697 251.77 381.136C252.861 380.561 253.717 379.788 254.338 378.818C254.959 377.848 255.27 376.75 255.27 375.523V371.818C254.967 372.015 254.55 372.197 254.02 372.364C253.505 372.515 252.921 372.659 252.27 372.795C251.618 372.917 250.967 373.03 250.315 373.136C249.664 373.227 249.073 373.311 248.543 373.386C247.406 373.553 246.414 373.818 245.565 374.182C244.717 374.545 244.058 375.038 243.588 375.659C243.118 376.265 242.884 377.023 242.884 377.932C242.884 379.25 243.361 380.258 244.315 380.955C245.285 381.636 246.512 381.977 247.997 381.977ZM270.349 388L270.304 380.318H271.463C272.281 380.318 272.986 380.121 273.577 379.727C274.183 379.318 274.683 378.659 275.077 377.75C275.471 376.841 275.781 375.636 276.009 374.136C276.236 372.621 276.387 370.758 276.463 368.545L277.031 353.091H303.577V388H294.349V360.705H285.736L285.19 371.364C285.054 374.288 284.698 376.803 284.122 378.909C283.562 381.015 282.781 382.742 281.781 384.091C280.781 385.424 279.577 386.409 278.168 387.045C276.759 387.682 275.122 388 273.259 388H270.349ZM326.855 388.682C323.325 388.682 320.272 387.932 317.696 386.432C315.135 384.917 313.158 382.811 311.764 380.114C310.37 377.402 309.673 374.258 309.673 370.682C309.673 367.076 310.37 363.924 311.764 361.227C313.158 358.515 315.135 356.409 317.696 354.909C320.272 353.394 323.325 352.636 326.855 352.636C330.385 352.636 333.431 353.394 335.991 354.909C338.567 356.409 340.552 358.515 341.946 361.227C343.34 363.924 344.037 367.076 344.037 370.682C344.037 374.258 343.34 377.402 341.946 380.114C340.552 382.811 338.567 384.917 335.991 386.432C333.431 387.932 330.385 388.682 326.855 388.682ZM326.901 381.182C328.507 381.182 329.848 380.727 330.923 379.818C331.999 378.894 332.81 377.636 333.355 376.045C333.916 374.455 334.196 372.644 334.196 370.614C334.196 368.583 333.916 366.773 333.355 365.182C332.81 363.591 331.999 362.333 330.923 361.409C329.848 360.485 328.507 360.023 326.901 360.023C325.279 360.023 323.916 360.485 322.81 361.409C321.719 362.333 320.893 363.591 320.332 365.182C319.787 366.773 319.514 368.583 319.514 370.614C319.514 372.644 319.787 374.455 320.332 376.045C320.893 377.636 321.719 378.894 322.81 379.818C323.916 380.727 325.279 381.182 326.901 381.182ZM350.332 388V353.091H365.219C369.522 353.091 372.923 353.909 375.423 355.545C377.923 357.182 379.173 359.508 379.173 362.523C379.173 364.417 378.469 365.992 377.06 367.25C375.651 368.508 373.696 369.356 371.196 369.795C373.287 369.947 375.067 370.424 376.537 371.227C378.022 372.015 379.151 373.038 379.923 374.295C380.711 375.553 381.105 376.947 381.105 378.477C381.105 380.462 380.575 382.167 379.514 383.591C378.469 385.015 376.931 386.106 374.901 386.864C372.885 387.621 370.423 388 367.514 388H350.332ZM359.355 380.75H367.514C368.863 380.75 369.916 380.432 370.673 379.795C371.446 379.144 371.832 378.258 371.832 377.136C371.832 375.894 371.446 374.917 370.673 374.205C369.916 373.492 368.863 373.136 367.514 373.136H359.355V380.75ZM359.355 367.455H365.423C366.393 367.455 367.219 367.318 367.901 367.045C368.598 366.758 369.128 366.348 369.491 365.818C369.87 365.288 370.06 364.659 370.06 363.932C370.06 362.856 369.628 362.015 368.764 361.409C367.901 360.803 366.719 360.5 365.219 360.5H359.355V367.455ZM397.162 388.659C394.935 388.659 392.95 388.273 391.207 387.5C389.465 386.712 388.086 385.553 387.071 384.023C386.071 382.477 385.571 380.553 385.571 378.25C385.571 376.311 385.927 374.682 386.639 373.364C387.351 372.045 388.321 370.985 389.548 370.182C390.776 369.379 392.17 368.773 393.73 368.364C395.306 367.955 396.957 367.667 398.685 367.5C400.715 367.288 402.351 367.091 403.594 366.909C404.836 366.712 405.738 366.424 406.298 366.045C406.859 365.667 407.139 365.106 407.139 364.364V364.227C407.139 362.788 406.685 361.674 405.776 360.886C404.882 360.098 403.609 359.705 401.957 359.705C400.215 359.705 398.829 360.091 397.798 360.864C396.768 361.621 396.086 362.576 395.753 363.727L386.798 363C387.253 360.879 388.147 359.045 389.48 357.5C390.813 355.939 392.533 354.742 394.639 353.909C396.76 353.061 399.215 352.636 402.003 352.636C403.942 352.636 405.798 352.864 407.571 353.318C409.359 353.773 410.942 354.477 412.321 355.432C413.715 356.386 414.813 357.614 415.616 359.114C416.42 360.598 416.821 362.379 416.821 364.455V388H407.639V383.159H407.366C406.806 384.25 406.056 385.212 405.116 386.045C404.177 386.864 403.048 387.508 401.73 387.977C400.412 388.432 398.889 388.659 397.162 388.659ZM399.935 381.977C401.359 381.977 402.616 381.697 403.707 381.136C404.798 380.561 405.654 379.788 406.276 378.818C406.897 377.848 407.207 376.75 407.207 375.523V371.818C406.904 372.015 406.488 372.197 405.957 372.364C405.442 372.515 404.859 372.659 404.207 372.795C403.556 372.917 402.904 373.03 402.253 373.136C401.601 373.227 401.01 373.311 400.48 373.386C399.344 373.553 398.351 373.818 397.503 374.182C396.654 374.545 395.995 375.038 395.526 375.659C395.056 376.265 394.821 377.023 394.821 377.932C394.821 379.25 395.298 380.258 396.253 380.955C397.223 381.636 398.45 381.977 399.935 381.977ZM420.827 360.705V353.091H452.463V360.705H441.213V388H431.986V360.705H420.827ZM464.401 363.818H474.832C479.454 363.818 483.06 364.924 485.651 367.136C488.241 369.333 489.537 372.273 489.537 375.955C489.537 378.348 488.954 380.455 487.787 382.273C486.62 384.076 484.938 385.485 482.741 386.5C480.545 387.5 477.908 388 474.832 388H458.332V353.091H467.582V380.386H474.832C476.454 380.386 477.787 379.977 478.832 379.159C479.878 378.341 480.408 377.295 480.423 376.023C480.408 374.674 479.878 373.576 478.832 372.727C477.787 371.864 476.454 371.432 474.832 371.432H464.401V363.818ZM507.526 341.455L506.639 374.045H498.321L497.412 341.455H507.526ZM502.48 388.591C500.98 388.591 499.692 388.061 498.616 387C497.541 385.924 497.01 384.636 497.026 383.136C497.01 381.652 497.541 380.379 498.616 379.318C499.692 378.258 500.98 377.727 502.48 377.727C503.92 377.727 505.185 378.258 506.276 379.318C507.366 380.379 507.92 381.652 507.935 383.136C507.92 384.136 507.654 385.053 507.139 385.886C506.639 386.705 505.98 387.364 505.162 387.864C504.344 388.348 503.45 388.591 502.48 388.591Z" fill="#727AC3"/>
<g filter="url(#filter1_d_125_145)">
<path fill-rule="evenodd" clip-rule="evenodd" d="M51 14C37.1929 14 26 25.1929 26 39V365.934C69.333 330.948 124.47 310 184.5 310C323.952 310 437 423.048 437 562.5C437 606.952 425.513 648.72 405.347 685H561C574.807 685 586 673.807 586 660V39C586 25.1929 574.807 14 561 14H51Z" fill="white"/>
</g>
<mask id="path-5-outside-1_125_145" maskUnits="userSpaceOnUse" x="202.148" y="261.272" width="307" height="129" fill="black">
<rect fill="white" x="202.148" y="261.272" width="307" height="129"/>
<path fill-rule="evenodd" clip-rule="evenodd" d="M324.199 263.272L327.153 269.591C326.169 270.409 325.078 271.015 323.881 271.409C322.684 271.788 321.252 272.038 319.585 272.159C317.934 272.28 315.919 272.363 313.54 272.409C310.843 272.439 308.646 272.871 306.949 273.704C305.252 274.538 303.964 275.848 303.085 277.636C302.206 279.409 301.631 281.727 301.358 284.591H301.699C302.744 282.454 304.214 280.803 306.108 279.636C308.017 278.469 310.373 277.886 313.176 277.886C316.146 277.886 318.744 278.538 320.972 279.841C323.214 281.144 324.956 283.015 326.199 285.454C327.441 287.894 328.062 290.818 328.062 294.227C328.062 297.772 327.366 300.856 325.972 303.477C324.593 306.083 322.631 308.106 320.085 309.545C317.54 310.969 314.509 311.682 310.994 311.682C307.464 311.682 304.419 310.939 301.858 309.454C299.312 307.969 297.343 305.78 295.949 302.886C294.57 299.992 293.881 296.432 293.881 292.204V289.341C293.881 280.932 295.517 274.697 298.79 270.636C302.062 266.575 306.873 264.515 313.222 264.454C314.949 264.424 316.509 264.416 317.903 264.432C319.297 264.447 320.517 264.379 321.562 264.227C322.623 264.075 323.502 263.757 324.199 263.272ZM311.04 304.182C312.525 304.182 313.797 303.795 314.858 303.022C315.934 302.25 316.759 301.144 317.335 299.704C317.926 298.265 318.222 296.545 318.222 294.545C318.222 292.56 317.926 290.879 317.335 289.5C316.759 288.106 315.934 287.045 314.858 286.318C313.782 285.591 312.494 285.227 310.994 285.227C309.873 285.227 308.866 285.432 307.972 285.841C307.078 286.25 306.312 286.856 305.676 287.659C305.055 288.447 304.57 289.424 304.222 290.591C303.888 291.742 303.722 293.06 303.722 294.545C303.722 297.53 304.366 299.886 305.653 301.613C306.956 303.325 308.752 304.182 311.04 304.182ZM240.67 316.27V311H212.602V311.546C209.468 311.199 206.316 310.909 203.148 310.678V303.159H206.307C207.383 302.386 208.367 301.295 209.261 299.886C210.155 298.462 210.92 296.5 211.557 294C212.193 291.485 212.648 288.197 212.92 284.136L214.239 264.454H245.034V303.159H250.125V318.612C246.997 317.772 243.845 316.992 240.67 316.27ZM343.688 366.491C337.698 361.621 331.481 357.019 325.054 352.705C325.64 352.659 326.24 352.636 326.855 352.636C330.385 352.636 333.431 353.394 335.991 354.909C338.567 356.409 340.552 358.515 341.946 361.227C342.771 362.823 343.351 364.577 343.688 366.491ZM367 388H367.514C370.423 388 372.885 387.621 374.901 386.863C376.931 386.106 378.469 385.015 379.514 383.591C380.575 382.166 381.105 380.462 381.105 378.477C381.105 376.947 380.711 375.553 379.923 374.295C379.151 373.038 378.022 372.015 376.537 371.227C375.067 370.424 373.287 369.947 371.196 369.795C373.696 369.356 375.651 368.507 377.06 367.25C378.469 365.992 379.173 364.416 379.173 362.522C379.173 359.507 377.923 357.182 375.423 355.545C372.923 353.909 369.522 353.091 365.219 353.091H350.332V372.085C353.406 374.765 356.415 377.517 359.355 380.34V373.136H367.514C368.863 373.136 369.916 373.492 370.673 374.204C371.446 374.916 371.832 375.894 371.832 377.136C371.832 378.257 371.446 379.144 370.673 379.795C369.916 380.432 368.863 380.75 367.514 380.75H359.78C362.235 383.118 364.642 385.535 367 388ZM235.58 303.159H217.67C218.458 301.871 219.163 300.341 219.784 298.568C220.42 296.78 220.958 294.697 221.398 292.318C221.852 289.939 222.178 287.212 222.375 284.136L223.102 272.568H235.58V303.159ZM262.54 309.432C265.116 310.932 268.169 311.682 271.699 311.682C275.229 311.682 278.275 310.932 280.835 309.432C283.411 307.916 285.396 305.81 286.79 303.113C288.184 300.401 288.881 297.257 288.881 293.682C288.881 290.075 288.184 286.924 286.79 284.227C285.396 281.515 283.411 279.409 280.835 277.909C278.275 276.394 275.229 275.636 271.699 275.636C268.169 275.636 265.116 276.394 262.54 277.909C259.979 279.409 258.002 281.515 256.608 284.227C255.214 286.924 254.517 290.075 254.517 293.682C254.517 297.257 255.214 300.401 256.608 303.113C258.002 305.81 259.979 307.916 262.54 309.432ZM275.767 302.818C274.691 303.727 273.35 304.182 271.744 304.182C270.123 304.182 268.759 303.727 267.653 302.818C266.562 301.894 265.737 300.636 265.176 299.045C264.631 297.454 264.358 295.644 264.358 293.613C264.358 291.583 264.631 289.772 265.176 288.182C265.737 286.591 266.562 285.333 267.653 284.409C268.759 283.485 270.123 283.022 271.744 283.022C273.35 283.022 274.691 283.485 275.767 284.409C276.843 285.333 277.653 286.591 278.199 288.182C278.759 289.772 279.04 291.583 279.04 293.613C279.04 295.644 278.759 297.454 278.199 299.045C277.653 300.636 276.843 301.894 275.767 302.818ZM334.489 276.091V324.091H344.17V305.409H344.466C344.905 306.379 345.542 307.341 346.375 308.295C347.208 309.235 348.277 310.015 349.58 310.636C350.898 311.257 352.496 311.568 354.375 311.568C357.027 311.568 359.42 310.886 361.557 309.522C363.708 308.144 365.405 306.121 366.648 303.454C367.905 300.772 368.534 297.485 368.534 293.591C368.534 289.591 367.89 286.265 366.602 283.613C365.314 280.947 363.595 278.954 361.443 277.636C359.292 276.303 356.943 275.636 354.398 275.636C352.443 275.636 350.807 275.969 349.489 276.636C348.186 277.288 347.125 278.106 346.307 279.091C345.504 280.06 344.89 281.015 344.466 281.954H344.034V276.091H334.489ZM344.83 298.977C344.254 297.432 343.966 295.621 343.966 293.545C343.966 291.469 344.254 289.666 344.83 288.136C345.405 286.606 346.231 285.424 347.307 284.591C348.398 283.757 349.731 283.341 351.307 283.341C352.898 283.341 354.239 283.772 355.33 284.636C356.42 285.5 357.246 286.697 357.807 288.227C358.367 289.757 358.648 291.53 358.648 293.545C358.648 295.575 358.36 297.371 357.784 298.932C357.223 300.477 356.398 301.689 355.307 302.568C354.216 303.432 352.883 303.863 351.307 303.863C349.746 303.863 348.42 303.439 347.33 302.591C346.239 301.727 345.405 300.522 344.83 298.977ZM390.761 311.682C387.231 311.682 384.178 310.932 381.602 309.432C379.042 307.916 377.064 305.81 375.67 303.113C374.277 300.401 373.58 297.257 373.58 293.682C373.58 290.075 374.277 286.924 375.67 284.227C377.064 281.515 379.042 279.409 381.602 277.909C384.178 276.394 387.231 275.636 390.761 275.636C394.292 275.636 397.337 276.394 399.898 277.909C402.473 279.409 404.458 281.515 405.852 284.227C407.246 286.924 407.943 290.075 407.943 293.682C407.943 297.257 407.246 300.401 405.852 303.113C404.458 305.81 402.473 307.916 399.898 309.432C397.337 310.932 394.292 311.682 390.761 311.682ZM390.807 304.182C392.413 304.182 393.754 303.727 394.83 302.818C395.905 301.894 396.716 300.636 397.261 299.045C397.822 297.454 398.102 295.644 398.102 293.613C398.102 291.583 397.822 289.772 397.261 288.182C396.716 286.591 395.905 285.333 394.83 284.409C393.754 283.485 392.413 283.022 390.807 283.022C389.186 283.022 387.822 283.485 386.716 284.409C385.625 285.333 384.799 286.591 384.239 288.182C383.693 289.772 383.42 291.583 383.42 293.613C383.42 295.644 383.693 297.454 384.239 299.045C384.799 300.636 385.625 301.894 386.716 302.818C387.822 303.727 389.186 304.182 390.807 304.182ZM365.423 367.454H359.355V360.5H365.219C366.719 360.5 367.901 360.803 368.764 361.409C369.628 362.015 370.06 362.856 370.06 363.932C370.06 364.659 369.87 365.288 369.491 365.818C369.128 366.348 368.598 366.757 367.901 367.045C367.219 367.318 366.393 367.454 365.423 367.454ZM397.162 388.659C394.935 388.659 392.95 388.272 391.207 387.5C389.465 386.712 388.086 385.553 387.071 384.022C386.071 382.477 385.571 380.553 385.571 378.25C385.571 376.31 385.927 374.682 386.639 373.363C387.351 372.045 388.321 370.985 389.548 370.182C390.776 369.379 392.169 368.772 393.73 368.363C395.306 367.954 396.957 367.666 398.685 367.5C400.715 367.288 402.351 367.091 403.594 366.909C404.836 366.712 405.738 366.424 406.298 366.045C406.859 365.666 407.139 365.106 407.139 364.363V364.227C407.139 362.788 406.685 361.674 405.776 360.886C404.882 360.098 403.609 359.704 401.957 359.704C400.215 359.704 398.829 360.091 397.798 360.863C396.768 361.621 396.086 362.575 395.753 363.727L386.798 363C387.253 360.879 388.147 359.045 389.48 357.5C390.813 355.939 392.533 354.742 394.639 353.909C396.76 353.06 399.215 352.636 402.003 352.636C403.942 352.636 405.798 352.863 407.571 353.318C409.359 353.772 410.942 354.477 412.321 355.432C413.715 356.386 414.813 357.613 415.616 359.113C416.419 360.598 416.821 362.379 416.821 364.454V388H407.639V383.159H407.366C406.806 384.25 406.056 385.212 405.116 386.045C404.177 386.863 403.048 387.507 401.73 387.977C400.412 388.432 398.889 388.659 397.162 388.659ZM399.935 381.977C401.359 381.977 402.616 381.697 403.707 381.136C404.798 380.56 405.654 379.788 406.276 378.818C406.897 377.848 407.207 376.75 407.207 375.522V371.818C406.904 372.015 406.488 372.197 405.957 372.363C405.442 372.515 404.859 372.659 404.207 372.795C403.556 372.916 402.904 373.03 402.253 373.136C401.601 373.227 401.01 373.31 400.48 373.386C399.344 373.553 398.351 373.818 397.503 374.182C396.654 374.545 395.995 375.038 395.526 375.659C395.056 376.265 394.821 377.022 394.821 377.932C394.821 379.25 395.298 380.257 396.253 380.954C397.223 381.636 398.45 381.977 399.935 381.977ZM420.827 353.091V360.704H431.986V388H441.213V360.704H452.463V353.091H420.827ZM467.582 380.386V371.432H474.832C476.454 371.432 477.787 371.863 478.832 372.727C479.878 373.575 480.408 374.674 480.423 376.022C480.408 377.295 479.878 378.341 478.832 379.159C477.787 379.977 476.454 380.386 474.832 380.386H467.582ZM467.582 363.818H474.832C479.454 363.818 483.06 364.924 485.651 367.136C488.241 369.333 489.537 372.272 489.537 375.954C489.537 378.348 488.954 380.454 487.787 382.272C486.62 384.075 484.938 385.485 482.741 386.5C480.544 387.5 477.908 388 474.832 388H458.332V353.091H467.582V363.818ZM506.639 374.045L507.526 341.454H497.412L498.321 374.045H506.639ZM498.616 387C499.692 388.06 500.98 388.591 502.48 388.591C503.45 388.591 504.344 388.348 505.162 387.863C505.98 387.363 506.639 386.704 507.139 385.886C507.654 385.053 507.919 384.136 507.935 383.136C507.919 381.651 507.366 380.379 506.276 379.318C505.185 378.257 503.919 377.727 502.48 377.727C500.98 377.727 499.692 378.257 498.616 379.318C497.541 380.379 497.01 381.651 497.026 383.136C497.01 384.636 497.541 385.924 498.616 387Z"/>
</mask>
<path fill-rule="evenodd" clip-rule="evenodd" d="M324.199 263.272L327.153 269.591C326.169 270.409 325.078 271.015 323.881 271.409C322.684 271.788 321.252 272.038 319.585 272.159C317.934 272.28 315.919 272.363 313.54 272.409C310.843 272.439 308.646 272.871 306.949 273.704C305.252 274.538 303.964 275.848 303.085 277.636C302.206 279.409 301.631 281.727 301.358 284.591H301.699C302.744 282.454 304.214 280.803 306.108 279.636C308.017 278.469 310.373 277.886 313.176 277.886C316.146 277.886 318.744 278.538 320.972 279.841C323.214 281.144 324.956 283.015 326.199 285.454C327.441 287.894 328.062 290.818 328.062 294.227C328.062 297.772 327.366 300.856 325.972 303.477C324.593 306.083 322.631 308.106 320.085 309.545C317.54 310.969 314.509 311.682 310.994 311.682C307.464 311.682 304.419 310.939 301.858 309.454C299.312 307.969 297.343 305.78 295.949 302.886C294.57 299.992 293.881 296.432 293.881 292.204V289.341C293.881 280.932 295.517 274.697 298.79 270.636C302.062 266.575 306.873 264.515 313.222 264.454C314.949 264.424 316.509 264.416 317.903 264.432C319.297 264.447 320.517 264.379 321.562 264.227C322.623 264.075 323.502 263.757 324.199 263.272ZM311.04 304.182C312.525 304.182 313.797 303.795 314.858 303.022C315.934 302.25 316.759 301.144 317.335 299.704C317.926 298.265 318.222 296.545 318.222 294.545C318.222 292.56 317.926 290.879 317.335 289.5C316.759 288.106 315.934 287.045 314.858 286.318C313.782 285.591 312.494 285.227 310.994 285.227C309.873 285.227 308.866 285.432 307.972 285.841C307.078 286.25 306.312 286.856 305.676 287.659C305.055 288.447 304.57 289.424 304.222 290.591C303.888 291.742 303.722 293.06 303.722 294.545C303.722 297.53 304.366 299.886 305.653 301.613C306.956 303.325 308.752 304.182 311.04 304.182ZM240.67 316.27V311H212.602V311.546C209.468 311.199 206.316 310.909 203.148 310.678V303.159H206.307C207.383 302.386 208.367 301.295 209.261 299.886C210.155 298.462 210.92 296.5 211.557 294C212.193 291.485 212.648 288.197 212.92 284.136L214.239 264.454H245.034V303.159H250.125V318.612C246.997 317.772 243.845 316.992 240.67 316.27ZM343.688 366.491C337.698 361.621 331.481 357.019 325.054 352.705C325.64 352.659 326.24 352.636 326.855 352.636C330.385 352.636 333.431 353.394 335.991 354.909C338.567 356.409 340.552 358.515 341.946 361.227C342.771 362.823 343.351 364.577 343.688 366.491ZM367 388H367.514C370.423 388 372.885 387.621 374.901 386.863C376.931 386.106 378.469 385.015 379.514 383.591C380.575 382.166 381.105 380.462 381.105 378.477C381.105 376.947 380.711 375.553 379.923 374.295C379.151 373.038 378.022 372.015 376.537 371.227C375.067 370.424 373.287 369.947 371.196 369.795C373.696 369.356 375.651 368.507 377.06 367.25C378.469 365.992 379.173 364.416 379.173 362.522C379.173 359.507 377.923 357.182 375.423 355.545C372.923 353.909 369.522 353.091 365.219 353.091H350.332V372.085C353.406 374.765 356.415 377.517 359.355 380.34V373.136H367.514C368.863 373.136 369.916 373.492 370.673 374.204C371.446 374.916 371.832 375.894 371.832 377.136C371.832 378.257 371.446 379.144 370.673 379.795C369.916 380.432 368.863 380.75 367.514 380.75H359.78C362.235 383.118 364.642 385.535 367 388ZM235.58 303.159H217.67C218.458 301.871 219.163 300.341 219.784 298.568C220.42 296.78 220.958 294.697 221.398 292.318C221.852 289.939 222.178 287.212 222.375 284.136L223.102 272.568H235.58V303.159ZM262.54 309.432C265.116 310.932 268.169 311.682 271.699 311.682C275.229 311.682 278.275 310.932 280.835 309.432C283.411 307.916 285.396 305.81 286.79 303.113C288.184 300.401 288.881 297.257 288.881 293.682C288.881 290.075 288.184 286.924 286.79 284.227C285.396 281.515 283.411 279.409 280.835 277.909C278.275 276.394 275.229 275.636 271.699 275.636C268.169 275.636 265.116 276.394 262.54 277.909C259.979 279.409 258.002 281.515 256.608 284.227C255.214 286.924 254.517 290.075 254.517 293.682C254.517 297.257 255.214 300.401 256.608 303.113C258.002 305.81 259.979 307.916 262.54 309.432ZM275.767 302.818C274.691 303.727 273.35 304.182 271.744 304.182C270.123 304.182 268.759 303.727 267.653 302.818C266.562 301.894 265.737 300.636 265.176 299.045C264.631 297.454 264.358 295.644 264.358 293.613C264.358 291.583 264.631 289.772 265.176 288.182C265.737 286.591 266.562 285.333 267.653 284.409C268.759 283.485 270.123 283.022 271.744 283.022C273.35 283.022 274.691 283.485 275.767 284.409C276.843 285.333 277.653 286.591 278.199 288.182C278.759 289.772 279.04 291.583 279.04 293.613C279.04 295.644 278.759 297.454 278.199 299.045C277.653 300.636 276.843 301.894 275.767 302.818ZM334.489 276.091V324.091H344.17V305.409H344.466C344.905 306.379 345.542 307.341 346.375 308.295C347.208 309.235 348.277 310.015 349.58 310.636C350.898 311.257 352.496 311.568 354.375 311.568C357.027 311.568 359.42 310.886 361.557 309.522C363.708 308.144 365.405 306.121 366.648 303.454C367.905 300.772 368.534 297.485 368.534 293.591C368.534 289.591 367.89 286.265 366.602 283.613C365.314 280.947 363.595 278.954 361.443 277.636C359.292 276.303 356.943 275.636 354.398 275.636C352.443 275.636 350.807 275.969 349.489 276.636C348.186 277.288 347.125 278.106 346.307 279.091C345.504 280.06 344.89 281.015 344.466 281.954H344.034V276.091H334.489ZM344.83 298.977C344.254 297.432 343.966 295.621 343.966 293.545C343.966 291.469 344.254 289.666 344.83 288.136C345.405 286.606 346.231 285.424 347.307 284.591C348.398 283.757 349.731 283.341 351.307 283.341C352.898 283.341 354.239 283.772 355.33 284.636C356.42 285.5 357.246 286.697 357.807 288.227C358.367 289.757 358.648 291.53 358.648 293.545C358.648 295.575 358.36 297.371 357.784 298.932C357.223 300.477 356.398 301.689 355.307 302.568C354.216 303.432 352.883 303.863 351.307 303.863C349.746 303.863 348.42 303.439 347.33 302.591C346.239 301.727 345.405 300.522 344.83 298.977ZM390.761 311.682C387.231 311.682 384.178 310.932 381.602 309.432C379.042 307.916 377.064 305.81 375.67 303.113C374.277 300.401 373.58 297.257 373.58 293.682C373.58 290.075 374.277 286.924 375.67 284.227C377.064 281.515 379.042 279.409 381.602 277.909C384.178 276.394 387.231 275.636 390.761 275.636C394.292 275.636 397.337 276.394 399.898 277.909C402.473 279.409 404.458 281.515 405.852 284.227C407.246 286.924 407.943 290.075 407.943 293.682C407.943 297.257 407.246 300.401 405.852 303.113C404.458 305.81 402.473 307.916 399.898 309.432C397.337 310.932 394.292 311.682 390.761 311.682ZM390.807 304.182C392.413 304.182 393.754 303.727 394.83 302.818C395.905 301.894 396.716 300.636 397.261 299.045C397.822 297.454 398.102 295.644 398.102 293.613C398.102 291.583 397.822 289.772 397.261 288.182C396.716 286.591 395.905 285.333 394.83 284.409C393.754 283.485 392.413 283.022 390.807 283.022C389.186 283.022 387.822 283.485 386.716 284.409C385.625 285.333 384.799 286.591 384.239 288.182C383.693 289.772 383.42 291.583 383.42 293.613C383.42 295.644 383.693 297.454 384.239 299.045C384.799 300.636 385.625 301.894 386.716 302.818C387.822 303.727 389.186 304.182 390.807 304.182ZM365.423 367.454H359.355V360.5H365.219C366.719 360.5 367.901 360.803 368.764 361.409C369.628 362.015 370.06 362.856 370.06 363.932C370.06 364.659 369.87 365.288 369.491 365.818C369.128 366.348 368.598 366.757 367.901 367.045C367.219 367.318 366.393 367.454 365.423 367.454ZM397.162 388.659C394.935 388.659 392.95 388.272 391.207 387.5C389.465 386.712 388.086 385.553 387.071 384.022C386.071 382.477 385.571 380.553 385.571 378.25C385.571 376.31 385.927 374.682 386.639 373.363C387.351 372.045 388.321 370.985 389.548 370.182C390.776 369.379 392.169 368.772 393.73 368.363C395.306 367.954 396.957 367.666 398.685 367.5C400.715 367.288 402.351 367.091 403.594 366.909C404.836 366.712 405.738 366.424 406.298 366.045C406.859 365.666 407.139 365.106 407.139 364.363V364.227C407.139 362.788 406.685 361.674 405.776 360.886C404.882 360.098 403.609 359.704 401.957 359.704C400.215 359.704 398.829 360.091 397.798 360.863C396.768 361.621 396.086 362.575 395.753 363.727L386.798 363C387.253 360.879 388.147 359.045 389.48 357.5C390.813 355.939 392.533 354.742 394.639 353.909C396.76 353.06 399.215 352.636 402.003 352.636C403.942 352.636 405.798 352.863 407.571 353.318C409.359 353.772 410.942 354.477 412.321 355.432C413.715 356.386 414.813 357.613 415.616 359.113C416.419 360.598 416.821 362.379 416.821 364.454V388H407.639V383.159H407.366C406.806 384.25 406.056 385.212 405.116 386.045C404.177 386.863 403.048 387.507 401.73 387.977C400.412 388.432 398.889 388.659 397.162 388.659ZM399.935 381.977C401.359 381.977 402.616 381.697 403.707 381.136C404.798 380.56 405.654 379.788 406.276 378.818C406.897 377.848 407.207 376.75 407.207 375.522V371.818C406.904 372.015 406.488 372.197 405.957 372.363C405.442 372.515 404.859 372.659 404.207 372.795C403.556 372.916 402.904 373.03 402.253 373.136C401.601 373.227 401.01 373.31 400.48 373.386C399.344 373.553 398.351 373.818 397.503 374.182C396.654 374.545 395.995 375.038 395.526 375.659C395.056 376.265 394.821 377.022 394.821 377.932C394.821 379.25 395.298 380.257 396.253 380.954C397.223 381.636 398.45 381.977 399.935 381.977ZM420.827 353.091V360.704H431.986V388H441.213V360.704H452.463V353.091H420.827ZM467.582 380.386V371.432H474.832C476.454 371.432 477.787 371.863 478.832 372.727C479.878 373.575 480.408 374.674 480.423 376.022C480.408 377.295 479.878 378.341 478.832 379.159C477.787 379.977 476.454 380.386 474.832 380.386H467.582ZM467.582 363.818H474.832C479.454 363.818 483.06 364.924 485.651 367.136C488.241 369.333 489.537 372.272 489.537 375.954C489.537 378.348 488.954 380.454 487.787 382.272C486.62 384.075 484.938 385.485 482.741 386.5C480.544 387.5 477.908 388 474.832 388H458.332V353.091H467.582V363.818ZM506.639 374.045L507.526 341.454H497.412L498.321 374.045H506.639ZM498.616 387C499.692 388.06 500.98 388.591 502.48 388.591C503.45 388.591 504.344 388.348 505.162 387.863C505.98 387.363 506.639 386.704 507.139 385.886C507.654 385.053 507.919 384.136 507.935 383.136C507.919 381.651 507.366 380.379 506.276 379.318C505.185 378.257 503.919 377.727 502.48 377.727C500.98 377.727 499.692 378.257 498.616 379.318C497.541 380.379 497.01 381.651 497.026 383.136C497.01 384.636 497.541 385.924 498.616 387Z" fill="#84B5FF"/>
<path d="M327.153 269.591L327.792 270.36L328.386 269.866L328.059 269.167L327.153 269.591ZM324.199 263.272L325.105 262.849L324.602 261.774L323.628 262.452L324.199 263.272ZM323.881 271.409L324.182 272.362L324.193 272.359L323.881 271.409ZM319.585 272.159L319.513 271.161L319.512 271.162L319.585 272.159ZM313.54 272.409L313.551 273.409L313.559 273.409L313.54 272.409ZM303.085 277.636L303.981 278.08L303.983 278.077L303.085 277.636ZM301.358 284.591L300.362 284.496L300.258 285.591H301.358V284.591ZM301.699 284.591V285.591H302.323L302.597 285.03L301.699 284.591ZM306.108 279.636L305.586 278.783L305.583 278.785L306.108 279.636ZM320.972 279.841L320.467 280.704L320.469 280.705L320.972 279.841ZM325.972 303.477L325.089 303.007L325.088 303.009L325.972 303.477ZM320.085 309.545L320.573 310.418L320.577 310.416L320.085 309.545ZM301.858 309.454L301.354 310.318L301.356 310.319L301.858 309.454ZM295.949 302.886L295.046 303.316L295.048 303.32L295.949 302.886ZM298.79 270.636L299.568 271.264L298.79 270.636ZM313.222 264.454L313.231 265.454L313.239 265.454L313.222 264.454ZM321.562 264.227L321.421 263.237L321.419 263.237L321.562 264.227ZM314.858 303.022L314.275 302.21L314.269 302.214L314.858 303.022ZM317.335 299.704L316.41 299.324L316.407 299.333L317.335 299.704ZM317.335 289.5L316.411 289.882L316.416 289.894L317.335 289.5ZM314.858 286.318L314.298 287.146L314.858 286.318ZM305.676 287.659L304.892 287.038L304.891 287.04L305.676 287.659ZM304.222 290.591L303.263 290.304L303.261 290.313L304.222 290.591ZM305.653 301.613L304.852 302.211L304.858 302.219L305.653 301.613ZM240.67 316.27H239.67V317.069L240.449 317.245L240.67 316.27ZM240.67 311H241.67V310H240.67V311ZM212.602 311V310H211.602V311H212.602ZM212.602 311.546L212.492 312.54L213.602 312.663V311.546H212.602ZM203.148 310.678H202.148V311.608L203.075 311.675L203.148 310.678ZM203.148 303.159V302.159H202.148V303.159H203.148ZM206.307 303.159V304.159H206.629L206.89 303.971L206.307 303.159ZM209.261 299.886L210.106 300.422L210.108 300.418L209.261 299.886ZM211.557 294L212.526 294.246L212.526 294.245L211.557 294ZM212.92 284.136L213.918 284.203L213.918 284.203L212.92 284.136ZM214.239 264.454V263.454H213.303L213.241 264.387L214.239 264.454ZM245.034 264.454H246.034V263.454H245.034V264.454ZM245.034 303.159H244.034V304.159H245.034V303.159ZM250.125 303.159H251.125V302.159H250.125V303.159ZM250.125 318.612L249.866 319.578L251.125 319.916V318.612H250.125ZM325.054 352.705L324.976 351.708L322.11 351.933L324.497 353.535L325.054 352.705ZM343.688 366.491L343.057 367.267L345.138 368.959L344.673 366.318L343.688 366.491ZM335.991 354.909L335.482 355.769L335.488 355.773L335.991 354.909ZM341.946 361.227L341.057 361.684L341.058 361.686L341.946 361.227ZM367 388L366.277 388.691L366.572 389H367V388ZM374.901 386.863L374.551 385.926L374.549 385.927L374.901 386.863ZM379.514 383.591L378.712 382.993L378.708 382.999L379.514 383.591ZM379.923 374.295L379.071 374.819L379.076 374.826L379.923 374.295ZM376.537 371.227L376.057 372.105L376.068 372.11L376.537 371.227ZM371.196 369.795L371.023 368.81L371.124 370.793L371.196 369.795ZM375.423 355.545L375.971 354.708L375.423 355.545ZM350.332 353.091V352.091H349.332V353.091H350.332ZM350.332 372.085H349.332V372.54L349.675 372.839L350.332 372.085ZM359.355 380.34L358.663 381.062L360.355 382.687V380.34H359.355ZM359.355 373.136V372.136H358.355V373.136H359.355ZM370.673 374.204L369.988 374.933L369.996 374.94L370.673 374.204ZM370.673 379.795L371.316 380.561L371.318 380.56L370.673 379.795ZM359.78 380.75V379.75H357.303L359.086 381.469L359.78 380.75ZM217.67 303.159L216.817 302.637L215.886 304.159H217.67V303.159ZM235.58 303.159V304.159H236.58V303.159H235.58ZM219.784 298.568L218.842 298.233L218.84 298.237L219.784 298.568ZM221.398 292.318L220.415 292.13L220.414 292.136L221.398 292.318ZM222.375 284.136L223.373 284.2L223.373 284.199L222.375 284.136ZM223.102 272.568V271.568H222.163L222.104 272.505L223.102 272.568ZM235.58 272.568H236.58V271.568H235.58V272.568ZM262.54 309.432L262.03 310.292L262.037 310.296L262.54 309.432ZM280.835 309.432L281.341 310.294L281.342 310.293L280.835 309.432ZM286.79 303.113L287.678 303.573L287.679 303.57L286.79 303.113ZM286.79 284.227L285.9 284.684L285.901 284.686L286.79 284.227ZM280.835 277.909L280.326 278.769L280.332 278.773L280.835 277.909ZM262.54 277.909L263.045 278.772L263.047 278.771L262.54 277.909ZM256.608 284.227L257.496 284.686L257.497 284.684L256.608 284.227ZM256.608 303.113L255.719 303.57L255.72 303.573L256.608 303.113ZM275.767 302.818L276.413 303.582L276.419 303.576L275.767 302.818ZM267.653 302.818L267.007 303.581L267.013 303.586L267.018 303.59L267.653 302.818ZM265.176 299.045L264.23 299.37L264.233 299.378L265.176 299.045ZM265.176 288.182L264.233 287.849L264.23 287.857L265.176 288.182ZM267.653 284.409L267.012 283.641L267.007 283.646L267.653 284.409ZM278.199 288.182L277.253 288.506L277.256 288.514L278.199 288.182ZM278.199 299.045L277.256 298.713L277.253 298.721L278.199 299.045ZM334.489 324.091H333.489V325.091H334.489V324.091ZM334.489 276.091V275.091H333.489V276.091H334.489ZM344.17 324.091V325.091H345.17V324.091H344.17ZM344.17 305.409V304.409H343.17V305.409H344.17ZM344.466 305.409L345.377 304.996L345.111 304.409H344.466V305.409ZM346.375 308.295L345.622 308.953L345.627 308.959L346.375 308.295ZM349.58 310.636L349.149 311.539L349.153 311.541L349.58 310.636ZM361.557 309.522L362.095 310.365L362.096 310.364L361.557 309.522ZM366.648 303.454L365.742 303.03L365.741 303.032L366.648 303.454ZM366.602 283.613L365.702 284.048L365.703 284.05L366.602 283.613ZM361.443 277.636L360.916 278.486L360.921 278.489L361.443 277.636ZM349.489 276.636L349.936 277.531L349.94 277.528L349.489 276.636ZM346.307 279.091L345.538 278.452L345.537 278.453L346.307 279.091ZM344.466 281.954V282.954H345.112L345.377 282.366L344.466 281.954ZM344.034 281.954H343.034V282.954H344.034V281.954ZM344.034 276.091H345.034V275.091H344.034V276.091ZM344.83 288.136L343.894 287.784L344.83 288.136ZM347.307 284.591L346.7 283.796L346.694 283.8L347.307 284.591ZM355.33 284.636L355.95 283.852L355.33 284.636ZM357.784 298.932L356.846 298.585L356.844 298.591L357.784 298.932ZM355.307 302.568L355.928 303.352L355.934 303.347L355.307 302.568ZM347.33 302.591L346.709 303.375L346.716 303.38L347.33 302.591ZM381.602 309.432L381.093 310.292L381.099 310.296L381.602 309.432ZM375.67 303.113L374.781 303.57L374.782 303.573L375.67 303.113ZM375.67 284.227L376.559 284.686L376.56 284.684L375.67 284.227ZM381.602 277.909L382.108 278.772L382.109 278.771L381.602 277.909ZM399.898 277.909L399.388 278.769L399.394 278.773L399.898 277.909ZM405.852 284.227L404.963 284.684L404.964 284.686L405.852 284.227ZM405.852 303.113L406.741 303.573L406.742 303.57L405.852 303.113ZM399.898 309.432L400.403 310.294L400.405 310.293L399.898 309.432ZM394.83 302.818L395.475 303.582L395.481 303.576L394.83 302.818ZM397.261 299.045L396.318 298.713L396.315 298.721L397.261 299.045ZM397.261 288.182L396.315 288.506L396.318 288.514L397.261 288.182ZM386.716 284.409L386.075 283.641L386.069 283.646L386.716 284.409ZM384.239 288.182L383.295 287.849L383.293 287.857L384.239 288.182ZM384.239 299.045L383.293 299.37L383.295 299.378L384.239 299.045ZM386.716 302.818L386.069 303.581L386.075 303.586L386.081 303.59L386.716 302.818ZM359.355 367.454H358.355V368.454H359.355V367.454ZM359.355 360.5V359.5H358.355V360.5H359.355ZM369.491 365.818L368.678 365.237L368.672 365.244L368.667 365.252L369.491 365.818ZM367.901 367.045L368.272 367.974L368.282 367.969L367.901 367.045ZM391.207 387.5L390.795 388.411L390.802 388.414L391.207 387.5ZM387.071 384.022L386.231 384.566L386.238 384.575L387.071 384.022ZM393.73 368.363L393.479 367.395L393.477 367.396L393.73 368.363ZM398.685 367.5L398.781 368.495L398.789 368.494L398.685 367.5ZM403.594 366.909L403.739 367.898L403.75 367.896L403.594 366.909ZM405.776 360.886L405.114 361.636L405.121 361.642L405.776 360.886ZM397.798 360.863L398.391 361.669L398.398 361.663L397.798 360.863ZM395.753 363.727L395.672 364.724L396.486 364.79L396.713 364.005L395.753 363.727ZM386.798 363L385.82 362.79L385.582 363.904L386.717 363.996L386.798 363ZM389.48 357.5L390.237 358.153L390.24 358.149L389.48 357.5ZM394.639 353.909L395.007 354.839L395.011 354.837L394.639 353.909ZM407.571 353.318L407.323 354.287L407.325 354.287L407.571 353.318ZM412.321 355.432L411.752 356.254L411.756 356.257L412.321 355.432ZM415.616 359.113L414.735 359.585L414.737 359.589L415.616 359.113ZM416.821 388V389H417.821V388H416.821ZM407.639 388H406.639V389H407.639V388ZM407.639 383.159H408.639V382.159H407.639V383.159ZM407.366 383.159V382.159H406.756L406.477 382.702L407.366 383.159ZM405.116 386.045L405.773 386.799L405.78 386.793L405.116 386.045ZM401.73 387.977L402.056 388.922L402.066 388.919L401.73 387.977ZM403.707 381.136L404.164 382.026L404.174 382.02L403.707 381.136ZM407.207 371.818H408.207V369.975L406.662 370.979L407.207 371.818ZM405.957 372.363L406.24 373.323L406.248 373.32L406.257 373.317L405.957 372.363ZM404.207 372.795L404.39 373.778L404.401 373.776L404.412 373.774L404.207 372.795ZM402.253 373.136L402.391 374.127L402.402 374.125L402.413 374.123L402.253 373.136ZM400.48 373.386L400.339 372.396L400.335 372.397L400.48 373.386ZM395.526 375.659L396.316 376.271L396.323 376.262L395.526 375.659ZM396.253 380.954L395.663 381.762L395.67 381.767L395.678 381.772L396.253 380.954ZM420.827 360.704H419.827V361.704H420.827V360.704ZM420.827 353.091V352.091H419.827V353.091H420.827ZM431.986 360.704H432.986V359.704H431.986V360.704ZM431.986 388H430.986V389H431.986V388ZM441.213 388V389H442.213V388H441.213ZM441.213 360.704V359.704H440.213V360.704H441.213ZM452.463 360.704V361.704H453.463V360.704H452.463ZM452.463 353.091H453.463V352.091H452.463V353.091ZM467.582 371.432V370.432H466.582V371.432H467.582ZM467.582 380.386H466.582V381.386H467.582V380.386ZM478.832 372.727L478.195 373.498L478.202 373.503L478.832 372.727ZM480.423 376.022L481.423 376.034L481.423 376.023L481.423 376.011L480.423 376.022ZM467.582 363.818H466.582V364.818H467.582V363.818ZM485.651 367.136L485.001 367.897L485.004 367.899L485.651 367.136ZM487.787 382.272L488.626 382.816L488.629 382.813L487.787 382.272ZM482.741 386.5L483.156 387.41L483.161 387.408L482.741 386.5ZM458.332 388H457.332V389H458.332V388ZM458.332 353.091V352.091H457.332V353.091H458.332ZM467.582 353.091H468.582V352.091H467.582V353.091ZM507.526 341.454L508.525 341.481L508.553 340.454H507.526V341.454ZM506.639 374.045V375.045H507.612L507.639 374.072L506.639 374.045ZM497.412 341.454V340.454H496.384L496.412 341.482L497.412 341.454ZM498.321 374.045L497.321 374.073L497.349 375.045H498.321V374.045ZM498.616 387L497.909 387.707L497.914 387.712L498.616 387ZM505.162 387.863L505.672 388.724L505.683 388.717L505.162 387.863ZM507.139 385.886L506.289 385.36L506.286 385.365L507.139 385.886ZM507.935 383.136L508.935 383.151L508.935 383.139L508.935 383.126L507.935 383.136ZM497.026 383.136L498.025 383.146L498.026 383.136L498.025 383.126L497.026 383.136ZM328.059 269.167L325.105 262.849L323.293 263.696L326.248 270.014L328.059 269.167ZM324.193 272.359C325.511 271.925 326.713 271.257 327.792 270.36L326.514 268.821C325.624 269.561 324.644 270.105 323.568 270.459L324.193 272.359ZM319.658 273.156C321.378 273.031 322.891 272.771 324.182 272.362L323.579 270.455C322.476 270.804 321.125 271.044 319.513 271.161L319.658 273.156ZM313.559 273.409C315.949 273.363 317.983 273.279 319.658 273.156L319.512 271.162C317.884 271.281 315.888 271.364 313.521 271.409L313.559 273.409ZM307.39 274.602C308.908 273.856 310.944 273.438 313.551 273.409L313.529 271.409C310.742 271.44 308.383 271.886 306.508 272.807L307.39 274.602ZM303.983 278.077C304.77 276.476 305.902 275.332 307.39 274.602L306.508 272.807C304.601 273.743 303.158 275.22 302.188 277.195L303.983 278.077ZM302.353 284.685C302.619 281.893 303.175 279.706 303.981 278.08L302.189 277.192C301.238 279.112 300.642 281.561 300.362 284.496L302.353 284.685ZM301.699 283.591H301.358V285.591H301.699V283.591ZM305.583 278.785C303.517 280.057 301.923 281.857 300.801 284.151L302.597 285.03C303.565 283.051 304.911 281.548 306.632 280.488L305.583 278.785ZM313.176 276.886C310.235 276.886 307.688 277.499 305.586 278.783L306.629 280.489C308.346 279.44 310.511 278.886 313.176 278.886V276.886ZM321.477 278.978C319.074 277.572 316.296 276.886 313.176 276.886V278.886C315.996 278.886 318.414 279.503 320.467 280.704L321.477 278.978ZM327.09 285C325.765 282.4 323.892 280.381 321.474 278.976L320.469 280.705C322.536 281.906 324.148 283.63 325.308 285.908L327.09 285ZM329.062 294.227C329.062 290.698 328.419 287.611 327.09 285L325.308 285.908C326.463 288.177 327.062 290.938 327.062 294.227H329.062ZM326.854 303.947C328.339 301.155 329.062 297.905 329.062 294.227H327.062C327.062 297.64 326.392 300.556 325.089 303.007L326.854 303.947ZM320.577 310.416C323.291 308.881 325.388 306.718 326.855 303.945L325.088 303.009C323.797 305.448 321.971 307.33 319.593 308.675L320.577 310.416ZM310.994 312.682C314.645 312.682 317.851 311.941 320.573 310.418L319.597 308.673C317.228 309.998 314.373 310.682 310.994 310.682V312.682ZM301.356 310.319C304.096 311.908 307.322 312.682 310.994 312.682V310.682C307.606 310.682 304.741 309.97 302.36 308.589L301.356 310.319ZM295.048 303.32C296.52 306.377 298.621 308.724 301.354 310.318L302.362 308.59C300.004 307.215 298.165 305.183 296.85 302.452L295.048 303.32ZM292.881 292.204C292.881 296.535 293.586 300.252 295.046 303.316L296.852 302.456C295.554 299.732 294.881 296.328 294.881 292.204H292.881ZM292.881 289.341V292.204H294.881V289.341H292.881ZM298.011 270.009C294.531 274.327 292.881 280.833 292.881 289.341H294.881C294.881 281.03 296.503 275.066 299.568 271.264L298.011 270.009ZM313.212 263.454C306.636 263.517 301.512 265.665 298.011 270.009L299.568 271.264C302.613 267.486 307.11 265.513 313.231 265.454L313.212 263.454ZM317.914 263.432C316.509 263.416 314.939 263.424 313.204 263.454L313.239 265.454C314.959 265.424 316.51 265.416 317.893 265.431L317.914 263.432ZM321.419 263.237C320.438 263.38 319.272 263.446 317.914 263.432L317.893 265.431C319.323 265.447 320.596 265.377 321.706 265.217L321.419 263.237ZM323.628 262.452C323.088 262.827 322.367 263.102 321.421 263.237L321.704 265.217C322.88 265.049 323.916 264.688 324.77 264.093L323.628 262.452ZM314.269 302.214C313.402 302.846 312.342 303.182 311.04 303.182V305.182C312.707 305.182 314.193 304.744 315.447 303.831L314.269 302.214ZM316.407 299.333C315.889 300.626 315.171 301.566 314.275 302.21L315.441 303.835C316.697 302.933 317.629 301.661 318.264 300.076L316.407 299.333ZM317.222 294.545C317.222 296.45 316.94 298.035 316.41 299.325L318.26 300.084C318.913 298.495 319.222 296.64 319.222 294.545H317.222ZM316.416 289.894C316.939 291.115 317.222 292.654 317.222 294.545H319.222C319.222 292.466 318.913 290.642 318.254 289.106L316.416 289.894ZM314.298 287.146C315.186 287.747 315.898 288.639 316.411 289.881L318.259 289.118C317.621 287.573 316.681 286.344 315.418 285.489L314.298 287.146ZM310.994 286.227C312.327 286.227 313.412 286.547 314.298 287.146L315.418 285.489C314.152 284.634 312.662 284.227 310.994 284.227V286.227ZM308.388 286.75C309.134 286.408 309.997 286.227 310.994 286.227V284.227C309.75 284.227 308.597 284.455 307.555 284.931L308.388 286.75ZM306.46 288.28C307.002 287.595 307.643 287.091 308.388 286.75L307.555 284.931C306.512 285.409 305.623 286.116 304.892 287.038L306.46 288.28ZM305.18 290.877C305.5 289.806 305.933 288.948 306.461 288.278L304.891 287.04C304.177 287.945 303.641 289.042 303.263 290.304L305.18 290.877ZM304.722 294.545C304.722 293.133 304.88 291.911 305.182 290.869L303.261 290.313C302.896 291.573 302.722 292.988 302.722 294.545H304.722ZM306.455 301.016C305.337 299.516 304.722 297.396 304.722 294.545H302.722C302.722 297.664 303.394 300.256 304.852 302.211L306.455 301.016ZM311.04 303.182C309.041 303.182 307.55 302.454 306.449 301.008L304.858 302.219C306.363 304.197 308.463 305.182 311.04 305.182V303.182ZM241.67 316.27V311H239.67V316.27H241.67ZM240.67 310H212.602V312H240.67V310ZM211.602 311V311.546H213.602V311H211.602ZM203.075 311.675C206.231 311.906 209.37 312.194 212.492 312.54L212.712 310.552C209.565 310.204 206.401 309.913 203.221 309.681L203.075 311.675ZM204.148 310.678V303.159H202.148V310.678H204.148ZM203.148 304.159H206.307V302.159H203.148V304.159ZM206.89 303.971C208.093 303.107 209.16 301.912 210.106 300.422L208.417 299.35C207.574 300.678 206.672 301.665 205.723 302.347L206.89 303.971ZM210.108 300.418C211.079 298.872 211.876 296.799 212.526 294.246L210.588 293.753C209.965 296.2 209.232 298.052 208.414 299.354L210.108 300.418ZM212.526 294.245C213.183 291.648 213.643 288.294 213.918 284.203L211.923 284.069C211.652 288.099 211.203 291.321 210.587 293.754L212.526 294.245ZM213.918 284.203L215.236 264.521L213.241 264.387L211.923 284.069L213.918 284.203ZM214.239 265.454H245.034V263.454H214.239V265.454ZM244.034 264.454V303.159H246.034V264.454H244.034ZM245.034 304.159H250.125V302.159H245.034V304.159ZM249.125 303.159V318.612H251.125V303.159H249.125ZM240.449 317.245C243.611 317.964 246.75 318.742 249.866 319.578L250.384 317.646C247.244 316.803 244.079 316.019 240.892 315.295L240.449 317.245ZM324.497 353.535C330.898 357.832 337.091 362.416 343.057 367.267L344.319 365.715C338.306 360.826 332.064 356.206 325.612 351.875L324.497 353.535ZM326.855 351.636C326.215 351.636 325.589 351.66 324.976 351.708L325.133 353.702C325.691 353.658 326.265 353.636 326.855 353.636V351.636ZM336.501 354.048C333.759 352.426 330.531 351.636 326.855 351.636V353.636C330.24 353.636 333.102 354.361 335.482 355.769L336.501 354.048ZM342.835 360.77C341.356 357.892 339.239 355.643 336.495 354.045L335.488 355.773C337.895 357.175 339.748 359.138 341.057 361.684L342.835 360.77ZM344.673 366.318C344.32 364.313 343.709 362.46 342.834 360.768L341.058 361.686C341.832 363.185 342.383 364.842 342.703 366.665L344.673 366.318ZM367.514 387H367V389H367.514V387ZM374.549 385.927C372.678 386.631 370.343 387 367.514 387V389C370.504 389 373.093 388.611 375.252 387.799L374.549 385.927ZM378.708 382.999C377.802 384.234 376.44 385.221 374.551 385.926L375.25 387.8C377.421 386.99 379.136 385.796 380.32 384.182L378.708 382.999ZM380.105 378.477C380.105 380.273 379.629 381.762 378.712 382.993L380.316 384.188C381.52 382.571 382.105 380.65 382.105 378.477H380.105ZM379.076 374.826C379.761 375.919 380.105 377.128 380.105 378.477H382.105C382.105 376.765 381.661 375.186 380.771 373.764L379.076 374.826ZM376.068 372.11C377.418 372.826 378.404 373.733 379.071 374.819L380.775 373.772C379.897 372.342 378.626 371.203 377.006 370.344L376.068 372.11ZM371.124 370.793C373.107 370.936 374.741 371.385 376.057 372.105L377.016 370.349C375.394 369.463 373.467 368.957 371.268 368.798L371.124 370.793ZM376.394 366.504C375.164 367.602 373.401 368.392 371.023 368.81L371.369 370.78C373.991 370.319 376.138 369.413 377.725 367.996L376.394 366.504ZM378.173 362.522C378.173 364.132 377.59 365.436 376.394 366.504L377.725 367.996C379.348 366.548 380.173 364.7 380.173 362.522H378.173ZM374.876 356.382C377.09 357.831 378.173 359.841 378.173 362.522H380.173C380.173 359.174 378.756 356.532 375.971 354.708L374.876 356.382ZM365.219 354.091C369.409 354.091 372.595 354.889 374.876 356.382L375.971 354.708C373.251 352.928 369.635 352.091 365.219 352.091V354.091ZM350.332 354.091H365.219V352.091H350.332V354.091ZM351.332 372.085V353.091H349.332V372.085H351.332ZM349.675 372.839C352.737 375.508 355.734 378.25 358.663 381.062L360.048 379.619C357.096 376.785 354.076 374.021 350.989 371.332L349.675 372.839ZM358.355 373.136V380.34H360.355V373.136H358.355ZM367.514 372.136H359.355V374.136H367.514V372.136ZM371.358 373.476C370.365 372.542 369.039 372.136 367.514 372.136V374.136C368.686 374.136 369.466 374.442 369.988 374.933L371.358 373.476ZM372.832 377.136C372.832 375.67 372.367 374.405 371.351 373.469L369.996 374.94C370.525 375.428 370.832 376.118 370.832 377.136H372.832ZM371.318 380.56C372.342 379.696 372.832 378.516 372.832 377.136H370.832C370.832 377.999 370.55 378.591 370.029 379.031L371.318 380.56ZM367.514 381.75C369.013 381.75 370.323 381.396 371.316 380.561L370.03 379.029C369.509 379.467 368.713 379.75 367.514 379.75V381.75ZM359.78 381.75H367.514V379.75H359.78V381.75ZM359.086 381.469C361.531 383.828 363.929 386.236 366.277 388.691L367.722 387.309C365.356 384.834 362.939 382.407 360.475 380.03L359.086 381.469ZM217.67 304.159H235.58V302.159H217.67V304.159ZM218.84 298.237C218.237 299.959 217.561 301.422 216.817 302.637L218.523 303.681C219.356 302.32 220.089 300.723 220.728 298.899L218.84 298.237ZM220.414 292.136C219.982 294.476 219.456 296.506 218.842 298.233L220.726 298.903C221.384 297.054 221.935 294.917 222.381 292.5L220.414 292.136ZM221.377 284.072C221.182 287.117 220.86 289.802 220.415 292.13L222.38 292.506C222.844 290.077 223.174 287.307 223.373 284.2L221.377 284.072ZM222.104 272.505L221.377 284.073L223.373 284.199L224.1 272.631L222.104 272.505ZM235.58 271.568H223.102V273.568H235.58V271.568ZM236.58 303.159V272.568H234.58V303.159H236.58ZM271.699 310.682C268.313 310.682 265.44 309.963 263.043 308.567L262.037 310.296C264.791 311.9 268.025 312.682 271.699 312.682V310.682ZM280.33 308.569C277.949 309.963 275.085 310.682 271.699 310.682V312.682C275.373 312.682 278.6 311.9 281.341 310.294L280.33 308.569ZM285.901 302.654C284.593 305.186 282.739 307.152 280.328 308.57L281.342 310.293C284.083 308.681 286.199 306.434 287.678 303.573L285.901 302.654ZM287.881 293.682C287.881 297.126 287.21 300.108 285.9 302.656L287.679 303.57C289.157 300.694 289.881 297.389 289.881 293.682H287.881ZM285.901 284.686C287.209 287.217 287.881 290.205 287.881 293.682H289.881C289.881 289.946 289.158 286.631 287.678 283.768L285.901 284.686ZM280.332 278.773C282.739 280.175 284.592 282.138 285.9 284.684L287.679 283.77C286.2 280.892 284.083 278.643 281.338 277.045L280.332 278.773ZM271.699 276.636C275.084 276.636 277.946 277.361 280.326 278.769L281.344 277.048C278.603 275.426 275.375 274.636 271.699 274.636V276.636ZM263.047 278.771C265.443 277.361 268.314 276.636 271.699 276.636V274.636C268.023 274.636 264.788 275.426 262.033 277.047L263.047 278.771ZM257.497 284.684C258.807 282.136 260.653 280.173 263.045 278.772L262.034 277.046C259.305 278.645 257.197 280.894 255.719 283.77L257.497 284.684ZM255.517 293.682C255.517 290.205 256.188 287.217 257.496 284.686L255.72 283.768C254.24 286.631 253.517 289.946 253.517 293.682H255.517ZM257.497 302.656C256.188 300.108 255.517 297.126 255.517 293.682H253.517C253.517 297.389 254.24 300.694 255.719 303.57L257.497 302.656ZM263.049 308.571C260.653 307.153 258.806 305.188 257.496 302.654L255.72 303.573C257.198 306.433 259.305 308.679 262.031 310.292L263.049 308.571ZM271.744 305.182C273.551 305.182 275.131 304.665 276.412 303.582L275.122 302.054C274.251 302.789 273.149 303.182 271.744 303.182V305.182ZM267.018 303.59C268.327 304.666 269.924 305.182 271.744 305.182V303.182C270.322 303.182 269.192 302.788 268.288 302.045L267.018 303.59ZM264.233 299.378C264.842 301.105 265.758 302.523 267.007 303.581L268.3 302.055C267.367 301.264 266.632 300.167 266.119 298.713L264.233 299.378ZM263.358 293.613C263.358 295.732 263.642 297.655 264.23 299.37L266.122 298.721C265.619 297.253 265.358 295.555 265.358 293.613H263.358ZM264.23 287.857C263.642 289.572 263.358 291.495 263.358 293.613H265.358C265.358 291.671 265.619 289.973 266.122 288.506L264.23 287.857ZM267.007 283.646C265.758 284.704 264.842 286.121 264.233 287.849L266.119 288.514C266.632 287.06 267.367 285.962 268.3 285.172L267.007 283.646ZM271.744 282.022C269.92 282.022 268.321 282.548 267.012 283.641L268.295 285.176C269.198 284.421 270.326 284.022 271.744 284.022V282.022ZM276.419 283.65C275.138 282.55 273.556 282.022 271.744 282.022V284.022C273.145 284.022 274.245 284.42 275.115 285.167L276.419 283.65ZM279.145 287.857C278.552 286.129 277.653 284.71 276.419 283.65L275.115 285.167C276.033 285.956 276.754 287.052 277.253 288.506L279.145 287.857ZM280.04 293.613C280.04 291.492 279.747 289.566 279.142 287.849L277.256 288.514C277.772 289.979 278.04 291.674 278.04 293.613H280.04ZM279.142 299.378C279.747 297.661 280.04 295.735 280.04 293.613H278.04C278.04 295.553 277.772 297.248 277.256 298.713L279.142 299.378ZM276.419 303.576C277.653 302.516 278.552 301.097 279.145 299.37L277.253 298.721C276.754 300.175 276.033 301.271 275.115 302.059L276.419 303.576ZM335.489 324.091V276.091H333.489V324.091H335.489ZM344.17 323.091H334.489V325.091H344.17V323.091ZM343.17 305.409V324.091H345.17V305.409H343.17ZM344.466 304.409H344.17V306.409H344.466V304.409ZM347.128 307.638C346.347 306.743 345.769 305.862 345.377 304.996L343.555 305.822C344.042 306.895 344.736 307.938 345.622 308.953L347.128 307.638ZM350.01 309.733C348.81 309.161 347.855 308.457 347.123 307.632L345.627 308.959C346.561 310.012 347.743 310.868 349.149 311.539L350.01 309.733ZM354.375 310.568C352.603 310.568 351.158 310.274 350.006 309.732L349.153 311.541C350.637 312.24 352.39 312.568 354.375 312.568V310.568ZM361.019 308.68C359.051 309.936 356.845 310.568 354.375 310.568V312.568C357.208 312.568 359.79 311.836 362.095 310.365L361.019 308.68ZM365.741 303.032C364.566 305.553 362.986 307.419 361.017 308.681L362.096 310.364C364.43 308.869 366.244 306.689 367.554 303.877L365.741 303.032ZM367.534 293.591C367.534 297.382 366.921 300.516 365.742 303.03L367.553 303.879C368.889 301.029 369.534 297.587 369.534 293.591H367.534ZM365.703 284.05C366.905 286.526 367.534 289.691 367.534 293.591H369.534C369.534 289.491 368.875 286.004 367.502 283.176L365.703 284.05ZM360.921 278.489C362.882 279.69 364.483 281.524 365.702 284.048L367.503 283.178C366.146 280.37 364.307 278.218 361.966 276.783L360.921 278.489ZM354.398 276.636C356.758 276.636 358.924 277.251 360.916 278.486L361.97 276.786C359.659 275.354 357.128 274.636 354.398 274.636V276.636ZM349.94 277.528C351.08 276.952 352.551 276.636 354.398 276.636V274.636C352.335 274.636 350.533 274.987 349.037 275.744L349.94 277.528ZM347.076 279.73C347.794 278.865 348.74 278.129 349.936 277.531L349.041 275.742C347.632 276.447 346.456 277.347 345.538 278.452L347.076 279.73ZM345.377 282.366C345.758 281.523 346.319 280.644 347.077 279.728L345.537 278.453C344.689 279.477 344.023 280.506 343.555 281.543L345.377 282.366ZM344.034 282.954H344.466V280.954H344.034V282.954ZM343.034 276.091V281.954H345.034V276.091H343.034ZM334.489 277.091H344.034V275.091H334.489V277.091ZM342.966 293.545C342.966 295.711 343.266 297.644 343.892 299.326L345.767 298.628C345.242 297.219 344.966 295.531 344.966 293.545H342.966ZM343.894 287.784C343.266 289.453 342.966 291.38 342.966 293.545H344.966C344.966 291.559 345.242 289.88 345.765 288.488L343.894 287.784ZM346.694 283.8C345.445 284.768 344.521 286.116 343.894 287.784L345.765 288.488C346.289 287.096 347.017 286.08 347.919 285.381L346.694 283.8ZM351.307 282.341C349.546 282.341 347.99 282.81 346.7 283.796L347.914 285.385C348.805 284.704 349.917 284.341 351.307 284.341V282.341ZM355.95 283.852C354.658 282.829 353.089 282.341 351.307 282.341V284.341C352.706 284.341 353.819 284.716 354.709 285.42L355.95 283.852ZM358.746 287.883C358.133 286.21 357.209 284.849 355.95 283.852L354.709 285.42C355.632 286.151 356.36 287.184 356.868 288.571L358.746 287.883ZM359.648 293.545C359.648 291.439 359.355 289.546 358.746 287.883L356.868 288.571C357.38 289.969 357.648 291.621 357.648 293.545H359.648ZM358.722 299.278C359.347 297.585 359.648 295.668 359.648 293.545H357.648C357.648 295.483 357.373 297.157 356.846 298.585L358.722 299.278ZM355.934 303.347C357.19 302.335 358.112 300.96 358.724 299.273L356.844 298.591C356.335 299.994 355.605 301.044 354.679 301.789L355.934 303.347ZM351.307 304.863C353.076 304.863 354.637 304.374 355.927 303.352L354.686 301.784C353.795 302.489 352.689 302.863 351.307 302.863V304.863ZM346.716 303.38C348.004 304.382 349.554 304.863 351.307 304.863V302.863C349.938 302.863 348.836 302.496 347.943 301.801L346.716 303.38ZM343.892 299.326C344.52 301.011 345.45 302.378 346.709 303.375L347.95 301.807C347.027 301.076 346.291 300.034 345.767 298.628L343.892 299.326ZM381.099 310.296C383.854 311.9 387.087 312.682 390.761 312.682V310.682C387.375 310.682 384.502 309.963 382.105 308.567L381.099 310.296ZM374.782 303.573C376.26 306.433 378.367 308.679 381.093 310.292L382.112 308.571C379.716 307.153 377.868 305.188 376.559 302.654L374.782 303.573ZM372.58 293.682C372.58 297.389 373.303 300.694 374.781 303.57L376.56 302.656C375.25 300.108 374.58 297.126 374.58 293.682H372.58ZM374.782 283.768C373.302 286.631 372.58 289.946 372.58 293.682H374.58C374.58 290.205 375.251 287.217 376.559 284.686L374.782 283.768ZM381.097 277.046C378.368 278.645 376.259 280.894 374.781 283.77L376.56 284.684C377.869 282.136 379.716 280.173 382.108 278.772L381.097 277.046ZM390.761 274.636C387.085 274.636 383.851 275.426 381.095 277.047L382.109 278.771C384.506 277.361 387.377 276.636 390.761 276.636V274.636ZM400.407 277.048C397.666 275.426 394.437 274.636 390.761 274.636V276.636C394.146 276.636 397.009 277.361 399.388 278.769L400.407 277.048ZM406.742 283.77C405.263 280.892 403.146 278.643 400.401 277.045L399.394 278.773C401.801 280.175 403.654 282.138 404.963 284.684L406.742 283.77ZM408.943 293.682C408.943 289.946 408.221 286.631 406.741 283.768L404.964 284.686C406.272 287.217 406.943 290.205 406.943 293.682H408.943ZM406.742 303.57C408.22 300.694 408.943 297.389 408.943 293.682H406.943C406.943 297.126 406.273 300.108 404.963 302.656L406.742 303.57ZM400.405 310.293C403.146 308.681 405.262 306.434 406.741 303.573L404.964 302.654C403.655 305.186 401.801 307.152 399.391 308.57L400.405 310.293ZM390.761 312.682C394.435 312.682 397.662 311.9 400.403 310.294L399.392 308.569C397.012 309.963 394.148 310.682 390.761 310.682V312.682ZM394.184 302.054C393.314 302.789 392.212 303.182 390.807 303.182V305.182C392.614 305.182 394.194 304.665 395.475 303.582L394.184 302.054ZM396.315 298.721C395.817 300.175 395.095 301.271 394.178 302.059L395.481 303.576C396.715 302.516 397.615 301.097 398.207 299.37L396.315 298.721ZM397.102 293.613C397.102 295.553 396.834 297.248 396.318 298.713L398.205 299.378C398.81 297.661 399.102 295.735 399.102 293.613H397.102ZM396.318 288.514C396.834 289.979 397.102 291.674 397.102 293.613H399.102C399.102 291.492 398.81 289.566 398.205 287.849L396.318 288.514ZM394.178 285.167C395.095 285.956 395.817 287.052 396.315 288.506L398.207 287.857C397.615 286.129 396.715 284.71 395.481 283.65L394.178 285.167ZM390.807 284.022C392.207 284.022 393.308 284.42 394.178 285.167L395.481 283.65C394.2 282.55 392.618 282.022 390.807 282.022V284.022ZM387.357 285.176C388.261 284.421 389.389 284.022 390.807 284.022V282.022C388.982 282.022 387.383 282.548 386.075 283.641L387.357 285.176ZM385.182 288.514C385.694 287.06 386.429 285.962 387.362 285.172L386.069 283.646C384.821 284.704 383.904 286.121 383.295 287.849L385.182 288.514ZM384.42 293.613C384.42 291.671 384.681 289.973 385.185 288.506L383.293 287.857C382.705 289.572 382.42 291.495 382.42 293.613H384.42ZM385.185 298.721C384.681 297.253 384.42 295.555 384.42 293.613H382.42C382.42 295.732 382.705 297.655 383.293 299.37L385.185 298.721ZM387.362 302.055C386.429 301.264 385.694 300.167 385.182 298.713L383.295 299.378C383.904 301.105 384.821 302.523 386.069 303.581L387.362 302.055ZM390.807 303.182C389.385 303.182 388.254 302.788 387.351 302.045L386.081 303.59C387.389 304.666 388.986 305.182 390.807 305.182V303.182ZM359.355 368.454H365.423V366.454H359.355V368.454ZM358.355 360.5V367.454H360.355V360.5H358.355ZM365.219 359.5H359.355V361.5H365.219V359.5ZM369.339 360.59C368.249 359.826 366.841 359.5 365.219 359.5V361.5C366.597 361.5 367.552 361.78 368.19 362.227L369.339 360.59ZM371.06 363.932C371.06 362.538 370.475 361.388 369.339 360.59L368.19 362.227C368.78 362.642 369.06 363.174 369.06 363.932H371.06ZM370.305 366.399C370.819 365.68 371.06 364.842 371.06 363.932H369.06C369.06 364.476 368.921 364.895 368.678 365.237L370.305 366.399ZM368.282 367.969C369.127 367.621 369.825 367.1 370.316 366.383L368.667 365.252C368.431 365.597 368.068 365.894 367.519 366.121L368.282 367.969ZM365.423 368.454C366.482 368.454 367.441 368.306 368.272 367.974L367.529 366.117C366.997 366.33 366.304 366.454 365.423 366.454V368.454ZM390.802 388.414C392.692 389.252 394.818 389.659 397.162 389.659V387.659C395.051 387.659 393.208 387.293 391.613 386.586L390.802 388.414ZM386.238 384.575C387.361 386.269 388.889 387.549 390.795 388.411L391.619 386.589C390.041 385.875 388.811 384.837 387.904 383.47L386.238 384.575ZM384.571 378.25C384.571 380.697 385.103 382.822 386.231 384.566L387.911 383.479C387.039 382.132 386.571 380.408 386.571 378.25H384.571ZM385.759 372.888C384.949 374.389 384.571 376.192 384.571 378.25H386.571C386.571 376.429 386.906 374.974 387.519 373.839L385.759 372.888ZM389.001 369.345C387.631 370.241 386.549 371.427 385.759 372.888L387.519 373.839C388.154 372.663 389.011 371.728 390.096 371.018L389.001 369.345ZM393.477 367.396C391.822 367.83 390.327 368.477 389.001 369.345L390.096 371.018C391.224 370.28 392.517 369.715 393.984 369.331L393.477 367.396ZM398.589 366.504C396.812 366.676 395.109 366.972 393.479 367.395L393.981 369.331C395.503 368.936 397.102 368.657 398.781 368.495L398.589 366.504ZM403.449 365.919C402.226 366.098 400.605 366.294 398.581 366.505L398.789 368.494C400.825 368.282 402.477 368.083 403.739 367.898L403.449 365.919ZM405.738 365.217C405.363 365.47 404.638 365.731 403.437 365.921L403.75 367.896C405.034 367.693 406.112 367.378 406.858 366.874L405.738 365.217ZM406.139 364.363C406.139 364.812 405.994 365.044 405.738 365.217L406.858 366.874C407.724 366.289 408.139 365.4 408.139 364.363H406.139ZM406.139 364.227V364.363H408.139V364.227H406.139ZM405.121 361.642C405.767 362.202 406.139 363.015 406.139 364.227H408.139C408.139 362.56 407.602 361.146 406.43 360.13L405.121 361.642ZM401.957 360.704C403.459 360.704 404.463 361.062 405.114 361.636L406.437 360.136C405.3 359.134 403.758 358.704 401.957 358.704V360.704ZM398.398 361.663C399.204 361.059 400.356 360.704 401.957 360.704V358.704C400.074 358.704 398.454 359.122 397.198 360.063L398.398 361.663ZM396.713 364.005C396.981 363.08 397.525 362.305 398.391 361.669L397.206 360.058C396.011 360.936 395.191 362.071 394.792 363.449L396.713 364.005ZM386.717 363.996L395.672 364.724L395.834 362.73L386.879 362.003L386.717 363.996ZM388.723 356.847C387.273 358.527 386.308 360.516 385.82 362.79L387.776 363.209C388.198 361.241 389.02 359.563 390.237 358.153L388.723 356.847ZM394.271 352.979C392.029 353.866 390.17 355.153 388.72 356.85L390.24 358.149C391.457 356.725 393.037 355.618 395.007 354.839L394.271 352.979ZM402.003 351.636C399.115 351.636 396.53 352.075 394.268 352.98L395.011 354.837C396.991 354.045 399.315 353.636 402.003 353.636V351.636ZM407.819 352.349C405.961 351.873 404.021 351.636 402.003 351.636V353.636C403.863 353.636 405.636 353.854 407.323 354.287L407.819 352.349ZM412.89 354.609C411.404 353.581 409.709 352.83 407.817 352.349L407.325 354.287C409.009 354.715 410.48 355.373 411.752 356.254L412.89 354.609ZM416.498 358.641C415.62 357.001 414.413 355.652 412.886 354.606L411.756 356.257C413.017 357.12 414.007 358.226 414.735 359.585L416.498 358.641ZM417.821 364.454C417.821 362.25 417.394 360.299 416.496 358.638L414.737 359.589C415.445 360.898 415.821 362.507 415.821 364.454H417.821ZM417.821 388V364.454H415.821V388H417.821ZM407.639 389H416.821V387H407.639V389ZM406.639 383.159V388H408.639V383.159H406.639ZM407.366 384.159H407.639V382.159H407.366V384.159ZM405.78 386.793C406.81 385.88 407.637 384.82 408.256 383.616L406.477 382.702C405.974 383.68 405.302 384.544 404.453 385.297L405.78 386.793ZM402.066 388.919C403.487 388.412 404.729 387.709 405.773 386.799L404.46 385.291C403.626 386.018 402.609 386.602 401.394 387.035L402.066 388.919ZM397.162 389.659C398.975 389.659 400.611 389.421 402.056 388.922L401.404 387.032C400.212 387.443 398.804 387.659 397.162 387.659V389.659ZM403.25 380.247C402.322 380.724 401.226 380.977 399.935 380.977V382.977C401.492 382.977 402.911 382.67 404.164 382.026L403.25 380.247ZM405.434 378.278C404.912 379.092 404.19 379.751 403.241 380.252L404.174 382.02C405.407 381.37 406.397 380.483 407.118 379.357L405.434 378.278ZM406.207 375.522C406.207 376.572 405.945 377.481 405.434 378.278L407.118 379.357C407.849 378.216 408.207 376.928 408.207 375.522H406.207ZM406.207 371.818V375.522H408.207V371.818H406.207ZM406.257 373.317C406.833 373.136 407.344 372.922 407.752 372.656L406.662 370.979C406.465 371.108 406.142 371.257 405.658 371.409L406.257 373.317ZM404.412 373.774C405.084 373.633 405.694 373.483 406.24 373.323L405.675 371.404C405.191 371.547 404.634 371.684 404.003 371.816L404.412 373.774ZM402.413 374.123C403.072 374.016 403.731 373.901 404.39 373.778L404.024 371.812C403.38 371.932 402.736 372.044 402.092 372.149L402.413 374.123ZM400.622 374.376C401.151 374.3 401.74 374.217 402.391 374.127L402.115 372.146C401.462 372.237 400.87 372.32 400.339 372.396L400.622 374.376ZM397.897 375.101C398.649 374.778 399.555 374.533 400.625 374.376L400.335 372.397C399.133 372.573 398.053 372.858 397.109 373.262L397.897 375.101ZM396.323 376.262C396.67 375.803 397.178 375.409 397.897 375.101L397.109 373.262C396.13 373.682 395.32 374.272 394.728 375.056L396.323 376.262ZM395.821 377.932C395.821 377.202 396.006 376.671 396.316 376.271L394.735 375.046C394.106 375.859 393.821 376.843 393.821 377.932H395.821ZM396.842 380.147C396.178 379.662 395.821 378.973 395.821 377.932H393.821C393.821 379.526 394.418 380.853 395.663 381.762L396.842 380.147ZM399.935 380.977C398.603 380.977 397.591 380.673 396.828 380.136L395.678 381.772C396.854 382.599 398.296 382.977 399.935 382.977V380.977ZM421.827 360.704V353.091H419.827V360.704H421.827ZM431.986 359.704H420.827V361.704H431.986V359.704ZM432.986 388V360.704H430.986V388H432.986ZM441.213 387H431.986V389H441.213V387ZM440.213 360.704V388H442.213V360.704H440.213ZM452.463 359.704H441.213V361.704H452.463V359.704ZM451.463 353.091V360.704H453.463V353.091H451.463ZM420.827 354.091H452.463V352.091H420.827V354.091ZM466.582 371.432V380.386H468.582V371.432H466.582ZM474.832 370.432H467.582V372.432H474.832V370.432ZM479.469 371.956C478.211 370.917 476.639 370.432 474.832 370.432V372.432C476.268 372.432 477.363 372.81 478.195 373.498L479.469 371.956ZM481.423 376.011C481.405 374.366 480.739 372.987 479.463 371.951L478.202 373.503C479.016 374.164 479.412 374.982 479.423 376.034L481.423 376.011ZM479.449 379.946C480.721 378.951 481.404 377.625 481.423 376.034L479.423 376.011C479.412 376.965 479.035 377.731 478.216 378.371L479.449 379.946ZM474.832 381.386C476.626 381.386 478.191 380.931 479.449 379.946L478.216 378.371C477.383 379.023 476.281 379.386 474.832 379.386V381.386ZM467.582 381.386H474.832V379.386H467.582V381.386ZM474.832 362.818H467.582V364.818H474.832V362.818ZM486.3 366.376C483.472 363.961 479.606 362.818 474.832 362.818V364.818C479.301 364.818 482.647 365.887 485.001 367.897L486.3 366.376ZM490.537 375.954C490.537 372.007 489.133 368.778 486.297 366.373L485.004 367.899C487.35 369.888 488.537 372.538 488.537 375.954H490.537ZM488.629 382.813C489.91 380.816 490.537 378.518 490.537 375.954H488.537C488.537 378.178 487.998 380.093 486.945 381.732L488.629 382.813ZM483.161 387.408C485.507 386.323 487.344 384.797 488.626 382.816L486.947 381.729C485.896 383.354 484.37 384.646 482.322 385.592L483.161 387.408ZM474.832 389C478.013 389 480.798 388.483 483.156 387.41L482.327 385.59C480.291 386.516 477.803 387 474.832 387V389ZM458.332 389H474.832V387H458.332V389ZM457.332 353.091V388H459.332V353.091H457.332ZM467.582 352.091H458.332V354.091H467.582V352.091ZM468.582 363.818V353.091H466.582V363.818H468.582ZM506.526 341.427L505.64 374.018L507.639 374.072L508.525 341.481L506.526 341.427ZM497.412 342.454H507.526V340.454H497.412V342.454ZM499.321 374.017L498.412 341.426L496.412 341.482L497.321 374.073L499.321 374.017ZM506.639 373.045H498.321V375.045H506.639V373.045ZM502.48 387.591C501.245 387.591 500.209 387.165 499.319 386.288L497.914 387.712C499.176 388.955 500.715 389.591 502.48 389.591V387.591ZM504.652 387.003C503.991 387.395 503.274 387.591 502.48 387.591V389.591C503.625 389.591 504.696 389.302 505.672 388.724L504.652 387.003ZM506.286 385.365C505.869 386.047 505.323 386.593 504.64 387.01L505.683 388.717C506.637 388.134 507.41 387.361 507.992 386.408L506.286 385.365ZM506.935 383.121C506.922 383.944 506.707 384.684 506.289 385.36L507.99 386.412C508.602 385.422 508.917 384.328 508.935 383.151L506.935 383.121ZM505.578 380.035C506.484 380.915 506.922 381.935 506.935 383.146L508.935 383.126C508.917 381.367 508.249 379.842 506.973 378.601L505.578 380.035ZM502.48 378.727C503.643 378.727 504.662 379.144 505.578 380.035L506.973 378.601C505.707 377.37 504.196 376.727 502.48 376.727V378.727ZM499.319 380.03C500.209 379.152 501.245 378.727 502.48 378.727V376.727C500.715 376.727 499.176 377.362 497.914 378.606L499.319 380.03ZM498.025 383.126C498.013 381.918 498.432 380.904 499.319 380.03L497.914 378.606C496.649 379.853 496.008 381.385 496.026 383.146L498.025 383.126ZM499.324 386.293C498.435 385.404 498.013 384.373 498.025 383.146L496.026 383.126C496.008 384.899 496.647 386.444 497.909 387.707L499.324 386.293Z" fill="#84B5FF" mask="url(#path-5-outside-1_125_145)"/>
<path fill-rule="evenodd" clip-rule="evenodd" d="M288.401 145.284C247.615 119.299 194.298 124.865 159.759 158.714L151.748 166.564C121.047 196.651 107.335 240.045 115.174 282.31C117.38 294.205 120.215 305.909 123.651 317.38C134.632 314.663 145.897 312.665 157.392 311.438C153.773 299.915 150.831 288.121 148.604 276.11C142.829 244.976 152.93 213.011 175.546 190.848L183.556 182.997C206.801 160.217 242.683 156.471 270.132 173.959L306.029 196.829C329.911 212.044 360.647 211.196 383.654 194.687C400.36 182.699 422.628 181.903 440.148 192.667L441.823 193.696C456.947 202.988 464.177 221.108 459.603 238.26L452.574 264.62C450.155 273.691 455.548 283.007 464.62 285.426C473.692 287.845 483.007 282.452 485.426 273.38L492.455 247.02C500.901 215.347 487.551 181.886 459.621 164.727L457.946 163.698C428.759 145.766 391.664 147.092 363.832 167.063C352.115 175.471 336.461 175.903 324.298 168.154L288.401 145.284Z" fill="#D3E5FF"/>
<defs>
<filter id="filter0_d_125_145" x="0" y="0" width="600" height="711" filterUnits="userSpaceOnUse" color-interpolation-filters="sRGB">
<feFlood flood-opacity="0" result="BackgroundImageFix"/>
<feColorMatrix in="SourceAlpha" type="matrix" values="0 0 0 0 0 0 0 0 0 0 0 0 0 0 0 0 0 0 127 0" result="hardAlpha"/>
<feOffset dx="-6" dy="6"/>
<feGaussianBlur stdDeviation="10"/>
<feComposite in2="hardAlpha" operator="out"/>
<feColorMatrix type="matrix" values="0 0 0 0 0.429583 0 0 0 0 0.524092 0 0 0 0 0.859167 0 0 0 0.42 0"/>
<feBlend mode="normal" in2="BackgroundImageFix" result="effect1_dropShadow_125_145"/>
<feBlend mode="normal" in="SourceGraphic" in2="effect1_dropShadow_125_145" result="shape"/>
</filter>
<filter id="filter1_d_125_145" x="0" y="0" width="600" height="711" filterUnits="userSpaceOnUse" color-interpolation-filters="sRGB">
<feFlood flood-opacity="0" result="BackgroundImageFix"/>
<feColorMatrix in="SourceAlpha" type="matrix" values="0 0 0 0 0 0 0 0 0 0 0 0 0 0 0 0 0 0 127 0" result="hardAlpha"/>
<feOffset dx="-6" dy="6"/>
<feGaussianBlur stdDeviation="10"/>
<feComposite in2="hardAlpha" operator="out"/>
<feColorMatrix type="matrix" values="0 0 0 0 0.429583 0 0 0 0 0.524092 0 0 0 0 0.859167 0 0 0 0.42 0"/>
<feBlend mode="normal" in2="BackgroundImageFix" result="effect1_dropShadow_125_145"/>
<feBlend mode="normal" in="SourceGraphic" in2="effect1_dropShadow_125_145" result="shape"/>
</filter>
</defs>
</svg>
